<svg id="Group_3" xmlns="http://www.w3.org/2000/svg" width="121.001" height="121.001" viewBox="0 0 121.001 121.001">
  <path id="path127" d="M7.5-102.751v121h121v-121Z" transform="translate(-7.501 102.751)" fill="none" fill-rule="evenodd"/>
  <path id="path128" d="M29.4-68.754V-89.727c-.148-5.29,2.877-11.34,8.927-8.315,7.058,4.033,9.482,14.209,0,23.192C32.5-69.534,27.155-66.61,21.431-62,10.813-53.341,7.717-37.9,18-28.824c10.074,7.452,26.713,5.094,27.721-10.233.152-8.984-8.233-15.805-16.356-11.436a7.608,7.608,0,0,0-3.549,7.825c.483,3.366,6.112,7.725,9.357.807" transform="translate(-6.058 104.094)" fill="none" stroke="#ff0026" stroke-linecap="round" stroke-linejoin="round" stroke-miterlimit="79.84" stroke-width="2" fill-rule="evenodd"/>
  <path id="path129" d="M27.474-43.5v18.15c.464,5.3-2.405,9.045-6.229,9.273a7.282,7.282,0,0,1-6.2-2.58,4.5,4.5,0,0,1-.121-5.832c1.841-2.144,5.878-2.053,6.5,1.156" transform="translate(-5.293 123.16)" fill="none" stroke="#ff0026" stroke-linecap="round" stroke-linejoin="round" stroke-miterlimit="79.84" stroke-width="2" fill-rule="evenodd"/>
  <path id="path130" d="M78.75-35.25l11.092,9.075" transform="translate(17.04 126.001)" fill="none" stroke="#ff0026" stroke-linecap="round" stroke-linejoin="round" stroke-miterlimit="79.84" stroke-width="2" fill-rule="evenodd"/>
  <path id="path131" d="M83.25-41.25l7.058,3.025" transform="translate(18.59 123.935)" fill="none" stroke="#ff0026" stroke-linecap="round" stroke-linejoin="round" stroke-miterlimit="79.84" stroke-width="2" fill-rule="evenodd"/>
  <path id="path132" d="M84.75-48.75H97.858" transform="translate(19.107 121.351)" fill="none" stroke="#ff0026" stroke-linecap="round" stroke-linejoin="round" stroke-miterlimit="79.84" stroke-width="2" fill-rule="evenodd"/>
  <path id="path133" d="M49.111-85.194a9.171,9.171,0,0,1,.022-6.234,9.212,9.212,0,0,1,11.8-5.5,9.209,9.209,0,0,1,5.5,11.8,9.168,9.168,0,0,1-4.088,4.847" transform="translate(6.647 104.564)" fill="none" stroke="#ff0026" stroke-linecap="round" stroke-linejoin="round" stroke-miterlimit="79.84" stroke-width="2" fill-rule="evenodd"/>
  <path id="path134" d="M48.894-88.332,62.16-83.5l-3.275,3.1-9.474-3.45-.516-4.48" transform="translate(6.756 107.718)" fill="none" stroke="#ff0026" stroke-linecap="round" stroke-linejoin="round" stroke-miterlimit="79.84" stroke-width="2" fill-rule="evenodd"/>
  <path id="path135" d="M51.178-85,43.761-58.727,46.6-57.692" transform="translate(4.988 108.865)" fill="none" stroke="#ff0026" stroke-linecap="round" stroke-linejoin="round" stroke-miterlimit="79.84" stroke-width="2" fill-rule="evenodd"/>
  <path id="path136" d="M59.924-82.434,48.718-57.542l-2.843-1.034" transform="translate(5.717 109.749)" fill="none" stroke="#ff0026" stroke-linecap="round" stroke-linejoin="round" stroke-miterlimit="79.84" stroke-width="2" fill-rule="evenodd"/>
  <path id="path137" d="M46.405-64.688,44.336-59" transform="translate(5.187 115.861)" fill="none" stroke="#ff0026" stroke-linecap="round" stroke-linejoin="round" stroke-miterlimit="79.84" stroke-width="2" fill-rule="evenodd"/>
  <path id="path138" d="M64.866-87.307,52.548-91.791" transform="translate(8.015 106.526)" fill="none" stroke="#ff0026" stroke-linecap="round" stroke-linejoin="round" stroke-miterlimit="79.84" stroke-width="2" fill-rule="evenodd"/>
  <g id="Group_4" transform="translate(37.891 8.086)">
    <path id="path139" d="M83.979-80.192l-3.494-2.017a2.92,2.92,0,0,1-1.106-4.131l5.042-8.732a2.947,2.947,0,0,1,3.259-1.612l5.375.774" transform="translate(-20.785 96.737)" fill="none" stroke="#ff0026" stroke-linecap="round" stroke-linejoin="round" stroke-miterlimit="79.84" stroke-width="2" fill-rule="evenodd"/>
    <path id="path140" d="M83.687-95.112l-2.62-1.512" transform="translate(-20.053 96.776)" fill="none" stroke="#ff0026" stroke-linecap="round" stroke-linejoin="round" stroke-miterlimit="79.84" stroke-width="2" fill-rule="evenodd"/>
    <path id="path141" d="M79.937-88.617l-2.62-1.512" transform="translate(-21.344 99.013)" fill="none" stroke="#ff0026" stroke-linecap="round" stroke-linejoin="round" stroke-miterlimit="79.84" stroke-width="2" fill-rule="evenodd"/>
    <path id="path142" d="M81.812-91.865l-2.62-1.512" transform="translate(-20.698 97.894)" fill="none" stroke="#ff0026" stroke-linecap="round" stroke-linejoin="round" stroke-miterlimit="79.84" stroke-width="2" fill-rule="evenodd"/>
    <path id="path143" d="M86.272-93.35l-4.033,6.986" transform="translate(-19.649 97.903)" fill="none" stroke="#ff0026" stroke-linecap="round" stroke-linejoin="round" stroke-miterlimit="79.84" stroke-width="2" fill-rule="evenodd"/>
    <path id="path144" d="M86.125-85.931,62.565-47.138" transform="translate(-26.426 100.459)" fill="none" stroke="#ff0026" stroke-linecap="round" stroke-linejoin="round" stroke-miterlimit="79.84" stroke-width="2" fill-rule="evenodd"/>
    <path id="path145" d="M78.882-65.842C72.753-68.22,63.746-67.86,59.095-59.8a25.523,25.523,0,0,0-3.251,10.347C55.165-45.816,53.42-43.4,48-40.59c-15.792,7.183-17.376,26.062.961,36.649" transform="translate(-35.684 106.937)" fill="none" stroke="#ff0026" stroke-linecap="round" stroke-linejoin="round" stroke-miterlimit="79.84" stroke-width="2" fill-rule="evenodd"/>
    <path id="path146" d="M61.584-44.347a5.044,5.044,0,0,1-1.846-6.888,5.044,5.044,0,0,1,6.888-1.846,5.045,5.045,0,0,1,1.845,6.888A5.043,5.043,0,0,1,61.584-44.347Z" transform="translate(-27.632 111.541)" fill="none" stroke="#ff0026" stroke-miterlimit="79.84" stroke-width="2" fill-rule="evenodd"/>
    <path id="path147" d="M60.6-39.821a9.079,9.079,0,0,1-3.321-12.4,9.079,9.079,0,0,1,12.4-3.322A9.079,9.079,0,0,1,73-43.143,9.079,9.079,0,0,1,60.6-39.821Z" transform="translate(-28.665 110.508)" fill="none" stroke="#ff0026" stroke-miterlimit="79.84" stroke-width="2" fill-rule="evenodd"/>
    <path id="path148" d="M46.709-32.238h0a2.016,2.016,0,0,0,.737,2.753l8.736,5.044a2.019,2.019,0,0,0,2.753-.738h0a2.016,2.016,0,0,0-.738-2.753l-8.735-5.043A2.016,2.016,0,0,0,46.709-32.238Z" transform="translate(-31.98 118.606)" fill="none" stroke="#ff0026" stroke-linecap="round" stroke-linejoin="round" stroke-miterlimit="79.84" stroke-width="2" fill-rule="evenodd"/>
    <path id="path149" d="M82.688-80.4l3.493,2.017a2.92,2.92,0,0,0,4.131-1.106l5.042-8.732a2.948,2.948,0,0,0-.234-3.629l-3.357-4.267" transform="translate(-19.494 96.949)" fill="none" stroke="#ff0026" stroke-linecap="round" stroke-linejoin="round" stroke-miterlimit="79.84" stroke-width="2" fill-rule="evenodd"/>
    <path id="path150" d="M92.109-90.249l2.62,1.512" transform="translate(-16.249 98.972)" fill="none" stroke="#ff0026" stroke-linecap="round" stroke-linejoin="round" stroke-miterlimit="79.84" stroke-width="2" fill-rule="evenodd"/>
    <path id="path151" d="M88.359-83.754l2.62,1.512" transform="translate(-17.541 101.209)" fill="none" stroke="#ff0026" stroke-linecap="round" stroke-linejoin="round" stroke-miterlimit="79.84" stroke-width="2" fill-rule="evenodd"/>
    <path id="path152" d="M90.234-87l2.62,1.512" transform="translate(-16.895 100.09)" fill="none" stroke="#ff0026" stroke-linecap="round" stroke-linejoin="round" stroke-miterlimit="79.84" stroke-width="2" fill-rule="evenodd"/>
    <path id="path153" d="M90.169-91.1l-4.033,6.986" transform="translate(-18.307 98.678)" fill="none" stroke="#ff0026" stroke-linecap="round" stroke-linejoin="round" stroke-miterlimit="79.84" stroke-width="2" fill-rule="evenodd"/>
    <path id="path154" d="M90.875-82.931,69.06-43.13" transform="translate(-24.188 101.492)" fill="none" stroke="#ff0026" stroke-linecap="round" stroke-linejoin="round" stroke-miterlimit="79.84" stroke-width="2" fill-rule="evenodd"/>
    <path id="path155" d="M84.212-62.42c5.124,4.118,9.316,12.1,4.663,20.156a25.5,25.5,0,0,1-7.335,7.989c-2.811,2.408-4.029,5.125-3.756,11.223C79.458-5.785,63.9,5.027,45.562-5.561" transform="translate(-32.282 108.557)" fill="none" stroke="#ff0026" stroke-linecap="round" stroke-linejoin="round" stroke-miterlimit="79.84" stroke-width="2" fill-rule="evenodd"/>
    <path id="path156" d="M54.536-25.867l8.571-14.845" transform="translate(-29.191 116.034)" fill="none" stroke="#ff0026" stroke-linecap="round" stroke-linejoin="round" stroke-miterlimit="79.84" stroke-width="2" fill-rule="evenodd"/>
    <path id="path157" d="M49.339-28.867,57.91-43.712" transform="translate(-30.981 115.001)" fill="none" stroke="#ff0026" stroke-linecap="round" stroke-linejoin="round" stroke-miterlimit="79.84" stroke-width="2" fill-rule="evenodd"/>
  </g>
</svg>
