<svg id="Group" xmlns="http://www.w3.org/2000/svg" width="121.001" height="121.001" viewBox="0 0 121.001 121.001">
  <path id="path11" d="M187.5-102.751v121h121v-121Z" transform="translate(-187.501 102.751)" fill="none" fill-rule="evenodd"/>
  <path id="path12" d="M232.5-89.2a19.49,19.49,0,0,1,14.117-6.05c5.167,0,10.177,1.863,14.8,3.5,6.175,2.191,9.731,2.548,16.463,2.548v16.133" transform="translate(-172.001 105.335)" fill="none" stroke="#ff0026" stroke-linecap="round" stroke-linejoin="round" stroke-miterlimit="79.84" stroke-width="1.7" fill-rule="evenodd"/>
  <path id="path13" d="M266.25-48v15.125" transform="translate(-160.377 121.61)" fill="none" stroke="#ff0026" stroke-linecap="round" stroke-linejoin="round" stroke-miterlimit="79.84" stroke-width="1.7" fill-rule="evenodd"/>
  <path id="path14" d="M247.533-40.687a79.839,79.839,0,0,1,8.7,2.745c6.175,2.191,9.731,2.548,16.463,2.548" transform="translate(-166.823 124.128)" fill="none" stroke="#ff0026" stroke-linecap="round" stroke-linejoin="round" stroke-miterlimit="79.84" stroke-width="1.7" fill-rule="evenodd"/>
  <path id="path15" d="M269.25-84.75h3.025a1.874,1.874,0,0,1,2.017,2.017v5.042" transform="translate(-159.343 108.951)" fill="none" stroke="#ff0026" stroke-linecap="round" stroke-linejoin="round" stroke-miterlimit="79.84" stroke-width="1.7" fill-rule="evenodd"/>
  <path id="path16" d="M281.267-48v22.183A1.828,1.828,0,0,1,279.25-23.8H249" transform="translate(-166.318 121.61)" fill="none" stroke="#ff0026" stroke-linecap="round" stroke-linejoin="round" stroke-miterlimit="79.84" stroke-width="1.7" fill-rule="evenodd"/>
  <path id="path17" d="M248.22-34.169c2.682.687,5.286,1.636,7.778,2.521,6.175,2.191,9.731,2.548,16.463,2.548h4.033V-47.25" transform="translate(-166.587 121.868)" fill="none" stroke="#ff0026" stroke-linecap="round" stroke-linejoin="round" stroke-miterlimit="79.84" stroke-width="1.7" fill-rule="evenodd"/>
  <path id="path18" d="M244.125-89.2a19.49,19.49,0,0,0-14.117-6.05c-5.167,0-10.177,1.863-14.8,3.5-6.175,2.191-9.731,2.548-16.463,2.548v72.6" transform="translate(-183.626 105.335)" fill="none" stroke="#ff0026" stroke-linecap="round" stroke-linejoin="round" stroke-miterlimit="79.84" stroke-width="1.7" fill-rule="evenodd"/>
  <path id="path19" d="M223.989-40.7a78.9,78.9,0,0,0-8.776,2.761c-6.175,2.191-9.731,2.548-16.463,2.548" transform="translate(-183.626 124.124)" fill="none" stroke="#ff0026" stroke-linecap="round" stroke-linejoin="round" stroke-miterlimit="79.84" stroke-width="1.7" fill-rule="evenodd"/>
  <path id="path20" d="M197.042-84.75h-3.025A1.874,1.874,0,0,0,192-82.733v69.575a1.828,1.828,0,0,0,2.017,2.017h30.25" transform="translate(-185.951 108.951)" fill="none" stroke="#ff0026" stroke-linecap="round" stroke-linejoin="round" stroke-miterlimit="79.84" stroke-width="1.7" fill-rule="evenodd"/>
  <path id="path21" d="M232.5-90.75v27.225" transform="translate(-172.001 106.885)" fill="none" stroke="#ff0026" stroke-linecap="round" stroke-linejoin="round" stroke-miterlimit="79.84" stroke-width="1.7" fill-rule="evenodd"/>
  <path id="path22" d="M238.183-67.5h-7.058L216-1.958h22.183" transform="translate(-177.685 114.893)" fill="none" stroke="#ff0026" stroke-linecap="round" stroke-linejoin="round" stroke-miterlimit="79.84" stroke-width="1.7" fill-rule="evenodd"/>
  <path id="path23" d="M220.5-36h16.133" transform="translate(-176.135 125.743)" fill="none" stroke="#ff0026" stroke-linecap="round" stroke-linejoin="round" stroke-miterlimit="79.84" stroke-width="1.7" fill-rule="evenodd"/>
  <path id="path24" d="M232.5-67.5h7.058L254.683-1.958H232.5" transform="translate(-172.001 114.893)" fill="none" stroke="#ff0026" stroke-linecap="round" stroke-linejoin="round" stroke-miterlimit="79.84" stroke-width="1.7" fill-rule="evenodd"/>
  <path id="path25" d="M248.633-36H232.5" transform="translate(-172.001 125.743)" fill="none" stroke="#ff0026" stroke-linecap="round" stroke-linejoin="round" stroke-miterlimit="79.84" stroke-width="1.7" fill-rule="evenodd"/>
  <path id="path26" d="M240.1-34.45a6.052,6.052,0,0,0-6.05-6.05A6.052,6.052,0,0,0,228-34.45" transform="translate(-173.551 124.193)" fill="none" stroke="#ff0026" stroke-linecap="round" stroke-linejoin="round" stroke-miterlimit="79.84" stroke-width="1.7" fill-rule="evenodd"/>
  <path id="path27" d="M233.03-35.606,219.251-51.781" transform="translate(-176.565 120.307)" fill="none" stroke="#ff0026" stroke-linecap="round" stroke-linejoin="round" stroke-miterlimit="79.84" stroke-width="1.7" fill-rule="evenodd"/>
  <path id="path28" d="M216.766-54.7,212.25-60" transform="translate(-178.976 117.476)" fill="none" stroke="#ff0026" stroke-linecap="round" stroke-linejoin="round" stroke-miterlimit="79.84" stroke-width="1.7" fill-rule="evenodd"/>
  <path id="path29" d="M221.456-51.052a3.637,3.637,0,0,0-1.008-5.042,3.637,3.637,0,0,0-5.042,1.008,3.637,3.637,0,0,0,1.008,5.042A3.637,3.637,0,0,0,221.456-51.052Z" transform="translate(-178.1 118.611)" fill="none" stroke="#ff0026" stroke-miterlimit="79.84" stroke-width="1.7" fill-rule="evenodd"/>
  <path id="path30" d="M232.5-32.75V-63" transform="translate(-172.001 116.443)" fill="none" stroke="#ff0026" stroke-linecap="round" stroke-linejoin="round" stroke-miterlimit="79.84" stroke-width="1.7" fill-rule="evenodd"/>
  <path id="path31" d="M235.033-62.25H231" transform="translate(-172.518 116.701)" fill="none" stroke="#ff0026" stroke-linecap="round" stroke-linejoin="round" stroke-miterlimit="79.84" stroke-width="1.7" fill-rule="evenodd"/>
  <path id="path32" d="M235.033-56.25H231" transform="translate(-172.518 118.768)" fill="none" stroke="#ff0026" stroke-linecap="round" stroke-linejoin="round" stroke-miterlimit="79.84" stroke-width="1.7" fill-rule="evenodd"/>
  <path id="path33" d="M235.033-50.25H231" transform="translate(-172.518 120.835)" fill="none" stroke="#ff0026" stroke-linecap="round" stroke-linejoin="round" stroke-miterlimit="79.84" stroke-width="1.7" fill-rule="evenodd"/>
  <path id="path34" d="M235.033-44.25H231" transform="translate(-172.518 122.901)" fill="none" stroke="#ff0026" stroke-linecap="round" stroke-linejoin="round" stroke-miterlimit="79.84" stroke-width="1.7" fill-rule="evenodd"/>
  <path id="path35" d="M224.024-22.285c-2.682.687-5.286,1.636-7.778,2.521-6.175,2.191-9.731,2.548-16.463,2.548H195.75V-81.75" transform="translate(-184.66 109.985)" fill="none" stroke="#ff0026" stroke-linecap="round" stroke-linejoin="round" stroke-miterlimit="79.84" stroke-width="1.7" fill-rule="evenodd"/>
  <path id="path36" d="M278.167-68.518,258-64.485v-6.05a2.321,2.321,0,0,1,1.861-2.389l16.327-3.266c1.424-.285,1.979.38,1.979,1.621Z" transform="translate(-163.218 111.877)" fill="none" stroke="#ff0026" stroke-linecap="round" stroke-linejoin="round" stroke-miterlimit="79.84" stroke-width="1.7" fill-rule="evenodd"/>
  <path id="path37" d="M258-68.25v21.175" transform="translate(-163.218 114.635)" fill="none" stroke="#ff0026" stroke-linecap="round" stroke-linejoin="round" stroke-miterlimit="79.84" stroke-width="1.7" fill-rule="evenodd"/>
  <path id="path38" d="M255.542-56.25a4.953,4.953,0,0,1,5.043,4.96,5.131,5.131,0,0,1-5.043,5.108,4.953,4.953,0,0,1-5.043-4.96A5.131,5.131,0,0,1,255.542-56.25Z" transform="translate(-165.802 118.768)" fill="none" stroke="#ff0026" stroke-miterlimit="79.84" stroke-width="1.7" fill-rule="evenodd"/>
  <path id="path39" d="M273-71.25v21.175" transform="translate(-158.052 113.601)" fill="none" stroke="#ff0026" stroke-linecap="round" stroke-linejoin="round" stroke-miterlimit="79.84" stroke-width="1.7" fill-rule="evenodd"/>
  <path id="path40" d="M270.542-58.5a4.953,4.953,0,0,1,5.043,4.96,5.131,5.131,0,0,1-5.043,5.108,4.953,4.953,0,0,1-5.043-4.96A5.131,5.131,0,0,1,270.542-58.5Z" transform="translate(-160.635 117.993)" fill="none" stroke="#ff0026" stroke-miterlimit="79.84" stroke-width="1.7" fill-rule="evenodd"/>
  <path id="path41" d="M247.291-73.488a4.953,4.953,0,0,1,5.043,4.96,5.131,5.131,0,0,1-5.043,5.108,4.953,4.953,0,0,1-5.043-4.96A5.131,5.131,0,0,1,247.291-73.488Z" transform="translate(-168.644 112.83)" fill="none" stroke="#ff0026" stroke-miterlimit="79.84" stroke-width="1.7" fill-rule="evenodd"/>
  <path id="path42" d="M249.754-63.808l-.015-17.971a2.559,2.559,0,0,1,1.9-2.667L261.854-87v7.058l-12.1,3.025" transform="translate(-166.064 108.176)" fill="none" stroke="#ff0026" stroke-linecap="round" stroke-linejoin="round" stroke-miterlimit="79.84" stroke-width="1.7" fill-rule="evenodd"/>
</svg>
