<svg id="Group_1" xmlns="http://www.w3.org/2000/svg" width="121.001" height="121.243" viewBox="0 0 121.001 121.243">
  <path id="path43" d="M97.5-102.751v121h121v-121Z" transform="translate(-97.501 102.751)" fill="none" fill-rule="evenodd"/>
  <path id="path44" d="M147.062-92.486l-.464-2.7h0L148.56-97.1c.465-.453.32-.9-.323-.991l-2.71-.4h0l-1.213-2.456c-.286-.582-.756-.582-1.043,0l-1.214,2.456h0l-2.709.4c-.644.093-.789.538-.323.991l1.96,1.912h0l-.464,2.7c-.109.64.27.917.844.614l2.425-1.275h0l2.425,1.275c.575.3.955.026.846-.614Z" transform="translate(-83.293 103.224)" fill="none" stroke="#ff0026" stroke-miterlimit="79.84" stroke-width="2.5" fill-rule="evenodd"/>
  <path id="path45" d="M141.775-94.5,138.75-78.367" transform="translate(-83.293 105.593)" fill="none" stroke="#ff0026" stroke-linecap="round" stroke-linejoin="round" stroke-miterlimit="79.84" stroke-width="2.5" fill-rule="evenodd"/>
  <path id="path46" d="M135.75-64.35V-77.458c0-2.017,1.008-3.025,3.025-5.042" transform="translate(-84.326 109.726)" fill="none" stroke="#ff0026" stroke-linecap="round" stroke-linejoin="round" stroke-miterlimit="79.84" stroke-width="2.5" fill-rule="evenodd"/>
  <path id="path47" d="M141.025-69.392v-8.067c0-2.017-1.008-3.025-3.025-5.042" transform="translate(-83.551 109.726)" fill="none" stroke="#ff0026" stroke-linecap="round" stroke-linejoin="round" stroke-miterlimit="79.84" stroke-width="2.5" fill-rule="evenodd"/>
  <path id="path48" d="M140.25-77.458c0-2.017,1.008-3.025,3.025-5.042" transform="translate(-82.776 109.726)" fill="none" stroke="#ff0026" stroke-linecap="round" stroke-linejoin="round" stroke-miterlimit="79.84" stroke-width="2.5" fill-rule="evenodd"/>
  <path id="path49" d="M150.025-64.35V-77.458c0-2.017-1.008-3.025-3.025-5.042" transform="translate(-80.451 109.726)" fill="none" stroke="#ff0026" stroke-linecap="round" stroke-linejoin="round" stroke-miterlimit="79.84" stroke-width="2.5" fill-rule="evenodd"/>
  <path id="path50" d="M144.75-69.392v-8.067c0-2.017,1.008-3.025,3.025-5.042" transform="translate(-81.226 109.726)" fill="none" stroke="#ff0026" stroke-linecap="round" stroke-linejoin="round" stroke-miterlimit="79.84" stroke-width="2.5" fill-rule="evenodd"/>
  <path id="path51" d="M145.525-77.458c0-2.017-1.008-3.025-3.025-5.042" transform="translate(-82.001 109.726)" fill="none" stroke="#ff0026" stroke-linecap="round" stroke-linejoin="round" stroke-miterlimit="79.84" stroke-width="2.5" fill-rule="evenodd"/>
  <path id="path52" d="M144-94.5l3.025,16.133" transform="translate(-81.485 105.593)" fill="none" stroke="#ff0026" stroke-linecap="round" stroke-linejoin="round" stroke-miterlimit="79.84" stroke-width="2.5" fill-rule="evenodd"/>
  <path id="path53" d="M145.342-73.5a16.3,16.3,0,0,0-8.067,7.058H134.25v15.125" transform="translate(-84.843 112.826)" fill="none" stroke="#ff0026" stroke-linecap="round" stroke-linejoin="round" stroke-miterlimit="79.84" stroke-width="2.5" fill-rule="evenodd"/>
  <path id="path54" d="M144.05-55.4A6.052,6.052,0,0,1,138-61.45a6.052,6.052,0,0,1,6.05-6.05,6.052,6.052,0,0,1,6.05,6.05A6.052,6.052,0,0,1,144.05-55.4Z" transform="translate(-83.551 114.893)" fill="none" stroke="#ff0026" stroke-miterlimit="79.84" stroke-width="2.5" fill-rule="evenodd"/>
  <path id="path55" d="M142.5-73.5a16.3,16.3,0,0,1,8.067,7.058h3.025v15.125" transform="translate(-82.001 112.826)" fill="none" stroke="#ff0026" stroke-linecap="round" stroke-linejoin="round" stroke-miterlimit="79.84" stroke-width="2.5" fill-rule="evenodd"/>
  <path id="path56" d="M142.5-48.933v-4.033c.243-1.839,1.4-2.821,3.025-4.033" transform="translate(-82.001 118.51)" fill="none" stroke="#ff0026" stroke-linecap="round" stroke-linejoin="round" stroke-miterlimit="79.84" stroke-width="2.5" fill-rule="evenodd"/>
  <path id="path57" d="M147.775-48.933v-4.033c-.243-1.839-1.4-2.821-3.025-4.033" transform="translate(-81.226 118.51)" fill="none" stroke="#ff0026" stroke-linecap="round" stroke-linejoin="round" stroke-miterlimit="79.84" stroke-width="2.5" fill-rule="evenodd"/>
  <path id="path58" d="M147-48.933v-4.033c.243-1.839,1.4-2.821,3.025-4.033" transform="translate(-80.451 118.51)" fill="none" stroke="#ff0026" stroke-linecap="round" stroke-linejoin="round" stroke-miterlimit="79.84" stroke-width="2.5" fill-rule="evenodd"/>
  <path id="path59" d="M152.275-48.933v-4.033c-.243-1.839-1.4-2.821-3.025-4.033" transform="translate(-79.676 118.51)" fill="none" stroke="#ff0026" stroke-linecap="round" stroke-linejoin="round" stroke-miterlimit="79.84" stroke-width="2.5" fill-rule="evenodd"/>
  <path id="path60" d="M151.5-54.675l3.025-9.075,3.025,9.075v8.067H151.5" transform="translate(-78.901 116.185)" fill="none" stroke="#ff0026" stroke-linecap="round" stroke-linejoin="round" stroke-miterlimit="79.84" stroke-width="2.5" fill-rule="evenodd"/>
  <path id="path61" d="M153.75-62.458V-67.5" transform="translate(-78.127 114.893)" fill="none" stroke="#ff0026" stroke-linecap="round" stroke-linejoin="round" stroke-miterlimit="79.84" stroke-width="2.5" fill-rule="evenodd"/>
  <path id="path62" d="M143.275-48.933v-4.033c-.243-1.839-1.4-2.821-3.025-4.033" transform="translate(-82.776 118.51)" fill="none" stroke="#ff0026" stroke-linecap="round" stroke-linejoin="round" stroke-miterlimit="79.84" stroke-width="2.5" fill-rule="evenodd"/>
  <path id="path63" d="M138-48.933v-4.033c.243-1.839,1.4-2.821,3.025-4.033" transform="translate(-83.551 118.51)" fill="none" stroke="#ff0026" stroke-linecap="round" stroke-linejoin="round" stroke-miterlimit="79.84" stroke-width="2.5" fill-rule="evenodd"/>
  <path id="path64" d="M138.775-48.933v-4.033c-.243-1.839-1.4-2.821-3.025-4.033" transform="translate(-84.326 118.51)" fill="none" stroke="#ff0026" stroke-linecap="round" stroke-linejoin="round" stroke-miterlimit="79.84" stroke-width="2.5" fill-rule="evenodd"/>
  <path id="path65" d="M133.5-48.933v-4.033c.243-1.839,1.4-2.821,3.025-4.033" transform="translate(-85.101 118.51)" fill="none" stroke="#ff0026" stroke-linecap="round" stroke-linejoin="round" stroke-miterlimit="79.84" stroke-width="2.5" fill-rule="evenodd"/>
  <path id="path66" d="M135.05-54.675l-3.025-9.075L129-54.675v8.067h6.05" transform="translate(-86.651 116.185)" fill="none" stroke="#ff0026" stroke-linecap="round" stroke-linejoin="round" stroke-miterlimit="79.84" stroke-width="2.5" fill-rule="evenodd"/>
  <path id="path67" d="M131.25-62.458V-67.5" transform="translate(-85.876 114.893)" fill="none" stroke="#ff0026" stroke-linecap="round" stroke-linejoin="round" stroke-miterlimit="79.84" stroke-width="2.5" fill-rule="evenodd"/>
  <path id="path68" d="M156-51h3.025l-2.017,4.033v10.083" transform="translate(-77.352 120.576)" fill="none" stroke="#ff0026" stroke-linecap="round" stroke-linejoin="round" stroke-miterlimit="79.84" stroke-width="2.5" fill-rule="evenodd"/>
  <path id="path69" d="M157.5-43.4h5.042V-55.5a5.379,5.379,0,0,1,5.042,4.033" transform="translate(-76.835 119.026)" fill="none" stroke="#ff0026" stroke-linecap="round" stroke-linejoin="round" stroke-miterlimit="79.84" stroke-width="2.5" fill-rule="evenodd"/>
  <path id="path70" d="M173.067-43.4h-3.025V-55.5A5.379,5.379,0,0,0,165-51.467" transform="translate(-74.252 119.026)" fill="none" stroke="#ff0026" stroke-linecap="round" stroke-linejoin="round" stroke-miterlimit="79.84" stroke-width="2.5" fill-rule="evenodd"/>
  <path id="path71" d="M186.075-43.4h-4.033V-55.5A5.379,5.379,0,0,0,177-51.467" transform="translate(-70.118 119.026)" fill="none" stroke="#ff0026" stroke-linecap="round" stroke-linejoin="round" stroke-miterlimit="79.84" stroke-width="2.5" fill-rule="evenodd"/>
  <path id="path72" d="M171-43.4h3.025V-55.5a5.379,5.379,0,0,1,5.042,4.033" transform="translate(-72.185 119.026)" fill="none" stroke="#ff0026" stroke-linecap="round" stroke-linejoin="round" stroke-miterlimit="79.84" stroke-width="2.5" fill-rule="evenodd"/>
  <path id="path73" d="M129.775-51H126.75l2.017,4.033v10.083" transform="translate(-87.426 120.576)" fill="none" stroke="#ff0026" stroke-linecap="round" stroke-linejoin="round" stroke-miterlimit="79.84" stroke-width="2.5" fill-rule="evenodd"/>
  <path id="path74" d="M130.083-43.4h-5.042V-55.5A5.379,5.379,0,0,0,120-51.467" transform="translate(-89.751 119.026)" fill="none" stroke="#ff0026" stroke-linecap="round" stroke-linejoin="round" stroke-miterlimit="79.84" stroke-width="2.5" fill-rule="evenodd"/>
  <path id="path75" d="M114-43.4h3.025V-55.5a5.379,5.379,0,0,1,5.042,4.033" transform="translate(-91.818 119.026)" fill="none" stroke="#ff0026" stroke-linecap="round" stroke-linejoin="round" stroke-miterlimit="79.84" stroke-width="2.5" fill-rule="evenodd"/>
  <path id="path76" d="M102-43.4h3.025V-55.5a5.379,5.379,0,0,1,5.042,4.033" transform="translate(-95.951 119.026)" fill="none" stroke="#ff0026" stroke-linecap="round" stroke-linejoin="round" stroke-miterlimit="79.84" stroke-width="2.5" fill-rule="evenodd"/>
  <path id="path77" d="M116.067-43.4h-3.025V-55.5A5.379,5.379,0,0,0,108-51.467" transform="translate(-93.885 119.026)" fill="none" stroke="#ff0026" stroke-linecap="round" stroke-linejoin="round" stroke-miterlimit="79.84" stroke-width="2.5" fill-rule="evenodd"/>
  <path id="path78" d="M147.925-45A21.183,21.183,0,0,1,169.1-23.825,21.184,21.184,0,0,1,147.925-2.65a21.184,21.184,0,0,1-21.176-21.175A21.184,21.184,0,0,1,147.925-45Z" transform="translate(-87.427 122.643)" fill="none" stroke="#ff0026" stroke-miterlimit="79.84" stroke-width="2.5" fill-rule="evenodd"/>
  <path id="path79" d="M165-43.5v3.025" transform="translate(-74.252 123.16)" fill="none" stroke="#ff0026" stroke-linecap="round" stroke-linejoin="round" stroke-miterlimit="79.84" stroke-width="2.5" fill-rule="evenodd"/>
  <path id="path80" d="M177-43.5v3.025" transform="translate(-70.118 123.16)" fill="none" stroke="#ff0026" stroke-linecap="round" stroke-linejoin="round" stroke-miterlimit="79.84" stroke-width="2.5" fill-rule="evenodd"/>
  <path id="path81" d="M108-43.5v3.025" transform="translate(-93.885 123.16)" fill="none" stroke="#ff0026" stroke-linecap="round" stroke-linejoin="round" stroke-miterlimit="79.84" stroke-width="2.5" fill-rule="evenodd"/>
  <path id="path82" d="M120-43.5v3.025" transform="translate(-89.751 123.16)" fill="none" stroke="#ff0026" stroke-linecap="round" stroke-linejoin="round" stroke-miterlimit="79.84" stroke-width="2.5" fill-rule="evenodd"/>
  <path id="path83" d="M136.5-36.749h4.033" transform="translate(-84.068 125.485)" fill="none" stroke="#ff0026" stroke-linecap="round" stroke-linejoin="round" stroke-miterlimit="79.84" stroke-width="2.5" fill-rule="evenodd"/>
  <path id="path84" d="M138-36.749,144.05-18.6" transform="translate(-83.551 125.485)" fill="none" stroke="#ff0026" stroke-linecap="round" stroke-linejoin="round" stroke-miterlimit="79.84" stroke-width="2.5" fill-rule="evenodd"/>
  <path id="path85" d="M139.292-36.749,134.25-18.6" transform="translate(-84.843 125.485)" fill="none" stroke="#ff0026" stroke-linecap="round" stroke-linejoin="round" stroke-miterlimit="79.84" stroke-width="2.5" fill-rule="evenodd"/>
  <path id="path86" d="M132.75-23.25h4.033" transform="translate(-85.36 130.134)" fill="none" stroke="#ff0026" stroke-linecap="round" stroke-linejoin="round" stroke-miterlimit="79.84" stroke-width="2.5" fill-rule="evenodd"/>
  <path id="path87" d="M141-23.25h4.033" transform="translate(-82.518 130.134)" fill="none" stroke="#ff0026" stroke-linecap="round" stroke-linejoin="round" stroke-miterlimit="79.84" stroke-width="2.5" fill-rule="evenodd"/>
  <path id="path88" d="M149.533-36.749H145.5" transform="translate(-80.968 125.485)" fill="none" stroke="#ff0026" stroke-linecap="round" stroke-linejoin="round" stroke-miterlimit="79.84" stroke-width="2.5" fill-rule="evenodd"/>
  <path id="path89" d="M148.55-36.749,142.5-18.6" transform="translate(-82.001 125.485)" fill="none" stroke="#ff0026" stroke-linecap="round" stroke-linejoin="round" stroke-miterlimit="79.84" stroke-width="2.5" fill-rule="evenodd"/>
  <path id="path90" d="M147-36.749,152.042-18.6" transform="translate(-80.451 125.485)" fill="none" stroke="#ff0026" stroke-linecap="round" stroke-linejoin="round" stroke-miterlimit="79.84" stroke-width="2.5" fill-rule="evenodd"/>
  <path id="path91" d="M153.283-23.25H149.25" transform="translate(-79.676 130.134)" fill="none" stroke="#ff0026" stroke-linecap="round" stroke-linejoin="round" stroke-miterlimit="79.84" stroke-width="2.5" fill-rule="evenodd"/>
  <path id="path92" d="M152.918-86.62c5.559-3.3,13.375-.586,12.128,8.83,3.783-2.908,8.51.148,7.357,4.906,4.1-1.307,6.543,1.906,5.648,5.161" transform="translate(-78.413 107.845)" fill="none" stroke="#ff0026" stroke-linecap="round" stroke-linejoin="round" stroke-miterlimit="79.84" stroke-width="2.5" fill-rule="evenodd"/>
  <path id="path93" d="M171.75-75H189.9" transform="translate(-71.927 112.31)" fill="none" stroke="#ff0026" stroke-linecap="round" stroke-linejoin="round" stroke-miterlimit="79.84" stroke-width="2.5" fill-rule="evenodd"/>
  <path id="path94" d="M167.25-79.5h13.108" transform="translate(-73.477 110.76)" fill="none" stroke="#ff0026" stroke-linecap="round" stroke-linejoin="round" stroke-miterlimit="79.84" stroke-width="2.5" fill-rule="evenodd"/>
  <path id="path95" d="M114-84.75h19.158" transform="translate(-91.818 108.951)" fill="none" stroke="#ff0026" stroke-linecap="round" stroke-linejoin="round" stroke-miterlimit="79.84" stroke-width="2.5" fill-rule="evenodd"/>
  <path id="path96" d="M129.975-79.5H102.75" transform="translate(-95.693 110.76)" fill="none" stroke="#ff0026" stroke-linecap="round" stroke-linejoin="round" stroke-miterlimit="79.84" stroke-width="2.5" fill-rule="evenodd"/>
  <path id="path97" d="M119.25-69.75h7.058" transform="translate(-90.01 114.118)" fill="none" stroke="#ff0026" stroke-linecap="round" stroke-linejoin="round" stroke-miterlimit="79.84" stroke-width="2.5" fill-rule="evenodd"/>
  <path id="path98" d="M155.25-19.5h37.308" transform="translate(-77.61 131.426)" fill="none" stroke="#ff0026" stroke-linecap="round" stroke-linejoin="round" stroke-miterlimit="79.84" stroke-width="2.5" fill-rule="evenodd"/>
  <path id="path99" d="M102-19.5h37.308" transform="translate(-95.951 131.426)" fill="none" stroke="#ff0026" stroke-linecap="round" stroke-linejoin="round" stroke-miterlimit="79.84" stroke-width="2.5" fill-rule="evenodd"/>
</svg>
