<svg xmlns="http://www.w3.org/2000/svg" width="121.001" height="121.001" viewBox="0 0 121.001 121.001">
  <g id="Group_673" data-name="Group 673" transform="translate(-1104 -2625.675)">
    <path id="path100" d="M277.5-102.751v121h121v-121Z" transform="translate(826.499 2728.426)" fill="none" fill-rule="evenodd"/>
    <path id="path108" d="M330-67.957c4.938-.021,7.755-6.6,8.941-12.293,2.235,10.058,14.529,13.411,25.7,10.058" transform="translate(825.629 2726.344)" fill="none" stroke="#ff0026" stroke-linecap="round" stroke-linejoin="round" stroke-miterlimit="79.84" stroke-width="2.5" fill-rule="evenodd"/>
    <path id="path109" d="M362.072-73.5v13.411c0,8.358-5.588,17.881-16.764,17.881a16.932,16.932,0,0,1-10.058-3.353" transform="translate(828.202 2729.652)" fill="none" stroke="#ff0026" stroke-linecap="round" stroke-linejoin="round" stroke-miterlimit="79.84" stroke-width="2.5" fill-rule="evenodd"/>
    <path id="path110" d="M347.25-68.25v2.235" transform="translate(834.083 2732.225)" fill="none" stroke="#ff0026" stroke-linecap="round" stroke-linejoin="round" stroke-miterlimit="79.84" stroke-width="2.5" fill-rule="evenodd"/>
    <path id="path111" d="M336-68.25v2.235" transform="translate(828.569 2732.225)" fill="none" stroke="#ff0026" stroke-linecap="round" stroke-linejoin="round" stroke-miterlimit="79.84" stroke-width="2.5" fill-rule="evenodd"/>
    <path id="path112" d="M347.941-60.013a8.55,8.55,0,0,1-4.47,1.137A8.55,8.55,0,0,1,339-60.013" transform="translate(830.04 2736.262)" fill="none" stroke="#ff0026" stroke-linecap="round" stroke-linejoin="round" stroke-miterlimit="79.84" stroke-width="2.5" fill-rule="evenodd"/>
    <path id="path113" d="M325.5-49.032v-19C326.618-82.559,336.676-91.5,350.087-91.5c14.529,0,22.924,10.486,24.587,26.822l1.118,16.764c.466,5.186,4.47,10.058,10.058,10.058-1.869,8.316-8.941,13.411-17.881,13.411" transform="translate(823.423 2720.83)" fill="none" stroke="#ff0026" stroke-linecap="round" stroke-linejoin="round" stroke-miterlimit="79.84" stroke-width="2.5" fill-rule="evenodd"/>
    <path id="path114" d="M347.254-53.25V-49.9c-.2,4.056,1.9,6.078,5.588,6.705l11.176,3.353c3.722.475,5.926,3.128,6.705,7.823v13.411a80.692,80.692,0,0,1-10.058,2.235" transform="translate(834.079 2739.577)" fill="none" stroke="#ff0026" stroke-linecap="round" stroke-linejoin="round" stroke-miterlimit="79.84" stroke-width="2.5" fill-rule="evenodd"/>
    <path id="path115" d="M361.5-29.25V-13.6" transform="translate(841.067 2751.34)" fill="none" stroke="#ff0026" stroke-linecap="round" stroke-linejoin="round" stroke-miterlimit="79.84" stroke-width="2.5" fill-rule="evenodd"/>
    <path id="path116" d="M355.5-35.25v24.587" transform="translate(838.127 2748.399)" fill="none" stroke="#ff0026" stroke-linecap="round" stroke-linejoin="round" stroke-miterlimit="79.84" stroke-width="2.5" fill-rule="evenodd"/>
    <path id="path117" d="M358.676-46.5c-1.922,6.9-6.705,10.058-13.411,10.058-4.1,0-7.479-1.18-9.926-3.673" transform="translate(828.245 2742.885)" fill="none" stroke="#ff0026" stroke-linecap="round" stroke-linejoin="round" stroke-miterlimit="79.84" stroke-width="2.5" fill-rule="evenodd"/>
    <path id="path118" d="M336.572-46.6c-10.654,1.6-19.154,4.987-24.587-2.235-1.663-2.11-2.235-5.993-2.235-8.941h6.706a11.2,11.2,0,0,1,2.235-4.47c3.211,2.15,5.588,3.353,10.058,3.353,10.058,0,15.646,8.573,15.646,19,0,12.293-4.47,25.7-15.646,25.7s-16.764-8.941-16.764-25.7" transform="translate(815.704 2735.166)" fill="none" stroke="#ff0026" stroke-linecap="round" stroke-linejoin="round" stroke-miterlimit="79.84" stroke-width="2.5" fill-rule="evenodd"/>
    <path id="path119" d="M326.25-30.75v2.235c0,2.779,1.718,4.652,4.47,5.588l6.705,2.235c4.536,1.541,6.705,4.47,6.705,7.823V-8.4" transform="translate(823.791 2750.604)" fill="none" stroke="#ff0026" stroke-linecap="round" stroke-linejoin="round" stroke-miterlimit="79.84" stroke-width="2.5" fill-rule="evenodd"/>
    <path id="path120" d="M326.25-43.5v1.118" transform="translate(823.791 2744.355)" fill="none" stroke="#ff0026" stroke-linecap="round" stroke-linejoin="round" stroke-miterlimit="79.84" stroke-width="2.5" fill-rule="evenodd"/>
    <path id="path121" d="M318-43.5v1.118" transform="translate(819.747 2744.355)" fill="none" stroke="#ff0026" stroke-linecap="round" stroke-linejoin="round" stroke-miterlimit="79.84" stroke-width="2.5" fill-rule="evenodd"/>
    <path id="path122" d="M327.323-36.75a6.855,6.855,0,0,1-3.912,1.118A6.855,6.855,0,0,1,319.5-36.75" transform="translate(820.483 2747.663)" fill="none" stroke="#ff0026" stroke-linecap="round" stroke-linejoin="round" stroke-miterlimit="79.84" stroke-width="2.5" fill-rule="evenodd"/>
    <path id="path123" d="M323.881-30.75v2.235c0,2.779-1.718,4.652-4.47,5.588l-6.705,2.235c-4.482,1.553-6.705,4.47-6.705,7.823V-8.4" transform="translate(813.866 2750.604)" fill="none" stroke="#ff0026" stroke-linecap="round" stroke-linejoin="round" stroke-miterlimit="79.84" stroke-width="2.5" fill-rule="evenodd"/>
    <path id="path124" d="M331.618-25.5c0,2.235-2.839,5.569-9.48,5.588" transform="translate(821.775 2753.177)" fill="none" stroke="#ff0026" stroke-linecap="round" stroke-linejoin="round" stroke-miterlimit="79.84" stroke-width="2.5" fill-rule="evenodd"/>
    <path id="path125" d="M315.777-25.5c0,2.235,2.839,5.569,9.479,5.588" transform="translate(818.658 2753.177)" fill="none" stroke="#ff0026" stroke-linecap="round" stroke-linejoin="round" stroke-miterlimit="79.84" stroke-width="2.5" fill-rule="evenodd"/>
  </g>
</svg>
