<svg xmlns="http://www.w3.org/2000/svg" width="232.55" height="68" viewBox="0 0 232.55 68">
  <g id="Group_697" data-name="Group 697" transform="translate(-200 -41)">
    <g id="Group_665" data-name="Group 665" transform="translate(282.179 76.136)">
      <path id="Path_452" data-name="Path 452" d="M93.881,35.8h1.061v8.777H85.2V35.8h1.061v7.716H89.54V35.8H90.6v7.716h3.279Z" transform="translate(-85.2 -35.511)" fill="#fff"/>
      <path id="Path_453" data-name="Path 453" d="M105.5,44.577l-3.087-4.051h-1.157v4.051H100.2V35.8h1.061v3.762h1.157l2.8-3.762h1.447l-3.183,4.244,3.472,4.533H105.5Z" transform="translate(-85.732 -35.511)" fill="#fff"/>
      <path id="Path_454" data-name="Path 454" d="M117.409,43.513a4.915,4.915,0,0,1-6.559,0,4.433,4.433,0,0,1-1.35-3.279,4.593,4.593,0,0,1,1.35-3.279,4.915,4.915,0,0,1,6.559,0,4.657,4.657,0,0,1,0,6.559Zm-5.787-.772a3.272,3.272,0,0,0,2.508.965,3.416,3.416,0,0,0,2.508-.965,3.474,3.474,0,0,0-2.508-5.98,3.416,3.416,0,0,0-2.508.965,3.272,3.272,0,0,0-.965,2.508A3.667,3.667,0,0,0,111.622,42.741Z" transform="translate(-86.062 -35.507)" fill="#fff"/>
      <path id="Path_455" data-name="Path 455" d="M124.215,35.8h5.4v8.777h-1.061V36.861h-3.279l-.386,5.016c-.193,1.833-1.061,2.8-2.6,2.8H121.9V43.613h.386c.965,0,1.447-.579,1.543-1.64Z" transform="translate(-86.501 -35.511)" fill="#fff"/>
      <path id="Path_456" data-name="Path 456" d="M140.738,44.577l-.868-2.122h-4.244l-.868,2.122H133.6l3.569-8.777h1.061l3.665,8.777Zm-2.99-7.234-1.64,4.148h3.376Z" transform="translate(-86.916 -35.511)" fill="#fff"/>
      <path id="Path_457" data-name="Path 457" d="M161.5,44.577h-1.157l-1.157-6.848-2.99,6.655H155.9l-2.99-6.655-1.157,6.848H150.6l1.447-8.777h1.061L156,42.262,158.9,35.8h1.061Z" transform="translate(-87.519 -35.511)" fill="#fff"/>
      <path id="Path_458" data-name="Path 458" d="M170.873,35.8h1.157l-2.7,6.077A6.125,6.125,0,0,1,167.979,44a2.781,2.781,0,0,1-1.833.579h-.386V43.516h.482a1.552,1.552,0,0,0,1.061-.289,2.967,2.967,0,0,0,.772-1.157L164.7,35.8h1.254l2.7,5.016Z" transform="translate(-88.019 -35.511)" fill="#fff"/>
      <path id="Path_459" data-name="Path 459" d="M179.826,39.937a1.893,1.893,0,0,1,.868.868,2.736,2.736,0,0,1,.386,1.254,2.24,2.24,0,0,1-.868,1.833,3.3,3.3,0,0,1-4.244,0,2.24,2.24,0,0,1-.868-1.833h1.061a1.375,1.375,0,0,0,.579,1.157,2.041,2.041,0,0,0,1.35.386,2.854,2.854,0,0,0,.965-.193,1.3,1.3,0,0,0,.675-.579,1.346,1.346,0,0,0,.289-.868,1.647,1.647,0,0,0-1.64-1.64h-1.061v-.965h1.061a1.451,1.451,0,0,0,1.061-.386,1.238,1.238,0,0,0,.386-.965,1.549,1.549,0,0,0-.482-1.061,1.779,1.779,0,0,0-1.254-.386,1.537,1.537,0,0,0-1.157.386,2,2,0,0,0-.579.965h-1.061a2.992,2.992,0,0,1,.868-1.736,2.627,2.627,0,0,1,1.929-.675,3.027,3.027,0,0,1,2.026.675,2.415,2.415,0,0,1,.772,1.736,2.124,2.124,0,0,1-.1.772,1.554,1.554,0,0,1-.386.675A1.094,1.094,0,0,1,179.826,39.937Z" transform="translate(-88.388 -35.5)" fill="#fff"/>
      <path id="Path_460" data-name="Path 460" d="M188.683,38.983a2.83,2.83,0,0,1,1.543.386,3.44,3.44,0,0,1,1.061.965,2.512,2.512,0,0,1,.386,1.447,2.808,2.808,0,0,1-2.99,2.8H185.5V35.8h1.061v3.087h2.122Zm-.1,4.63a1.817,1.817,0,0,0,1.929-1.736,1.555,1.555,0,0,0-.579-1.254,1.68,1.68,0,0,0-1.35-.482h-2.026v3.569h2.026Zm4.34-7.813h1.061v8.777h-1.061Z" transform="translate(-88.757 -35.511)" fill="#fff"/>
      <path id="Path_461" data-name="Path 461" d="M204.5,44.577l-3.087-4.051h-1.157v4.051H199.2V35.8h1.061v3.762h1.157l2.8-3.762h1.447l-3.183,4.244,3.472,4.533H204.5Z" transform="translate(-89.243 -35.511)" fill="#fff"/>
      <path id="Path_462" data-name="Path 462" d="M215.677,35.8h.772v8.777h-1.061V37.922l-5.016,6.655H209.6V35.8h1.061v6.655Z" transform="translate(-89.611 -35.511)" fill="#fff"/>
    </g>
    <g id="Group_666" data-name="Group 666" transform="translate(281.407 91.761)">
      <path id="Path_463" data-name="Path 463" d="M88.644,51.7a4.288,4.288,0,0,1,3.183,1.254,4.915,4.915,0,0,1,0,6.559,4.653,4.653,0,0,1-5.884.386A4.22,4.22,0,0,1,84.4,57.487h1.061a3.576,3.576,0,0,0,1.254,1.64,3.259,3.259,0,0,0,1.929.579,3.314,3.314,0,0,0,3.376-2.99H87.872V55.655h4.244a3.133,3.133,0,0,0-1.157-2.122,2.984,2.984,0,0,0-2.218-.772,3.478,3.478,0,0,0-1.929.579,3.313,3.313,0,0,0-1.254,1.543H84.4a4.919,4.919,0,0,1,1.543-2.315A4.312,4.312,0,0,1,88.644,51.7Z" transform="translate(-84.4 -51.7)" fill="#fff"/>
      <path id="Path_464" data-name="Path 464" d="M107.8,60.577h-1.157l-1.157-6.848-2.99,6.655H102.2l-2.99-6.655-1.157,6.848H96.9L98.347,51.8h1.061l2.894,6.462L105.2,51.8h1.061Z" transform="translate(-84.843 -51.704)" fill="#fff"/>
      <path id="Path_465" data-name="Path 465" d="M118.277,51.8h.772v8.777h-1.061V53.922l-5.016,6.655H112.2V51.8h1.061v6.655Z" transform="translate(-85.386 -51.704)" fill="#fff"/>
      <path id="Path_466" data-name="Path 466" d="M125.515,51.8h5.4v8.777h-1.061V52.861h-3.279l-.386,5.016c-.193,1.833-1.061,2.8-2.6,2.8H123.2V59.613h.386c.965,0,1.447-.579,1.543-1.64Z" transform="translate(-85.776 -51.704)" fill="#fff"/>
      <path id="Path_467" data-name="Path 467" d="M138.294,51.8h3.376v8.777h-1.061V57.2h-1.929l-2.026,3.376H135.4l2.122-3.569a3.566,3.566,0,0,1-1.061-.482,2.659,2.659,0,0,1-.675-.868A2.568,2.568,0,0,1,135.5,54.5a2.428,2.428,0,0,1,.868-1.929A2.394,2.394,0,0,1,138.294,51.8Zm0,4.34h2.218V52.861h-2.218a2.854,2.854,0,0,0-.965.193,1.3,1.3,0,0,0-.675.579,1.433,1.433,0,0,0-.193.868,2.817,2.817,0,0,0,.193.868,1.3,1.3,0,0,0,.675.579A3.427,3.427,0,0,0,138.294,56.14Z" transform="translate(-86.209 -51.704)" fill="#fff"/>
      <path id="Path_468" data-name="Path 468" d="M157.6,60.577l-3.087-4.051h-1.157v4.051H152.3V51.8h1.061v3.762h1.157l2.8-3.762h1.447l-3.183,4.244,3.472,4.533H157.6Z" transform="translate(-86.808 -51.704)" fill="#fff"/>
      <path id="Path_469" data-name="Path 469" d="M168.838,60.577l-.868-2.122h-4.244l-.868,2.122H161.7l3.569-8.777h1.061L170,60.577Zm-2.99-7.234-1.64,4.148h3.376Z" transform="translate(-87.141 -51.704)" fill="#fff"/>
      <path id="Path_470" data-name="Path 470" d="M180.909,59.616h.868v2.8h-1.061V60.581h-6.655v1.833H173v-2.8h.675a1.332,1.332,0,0,0,.386-.289,1.571,1.571,0,0,0,.289-.579,2.816,2.816,0,0,0,.193-.868,11.075,11.075,0,0,1,.193-1.35,11.874,11.874,0,0,0,.193-1.929c0-.675.193-1.543.193-2.7h5.5v7.716Zm-4.533-6.752q-.289,3.472-.579,4.919a3.646,3.646,0,0,1-.772,1.833h4.726V52.865Z" transform="translate(-87.542 -51.707)" fill="#fff"/>
      <path id="Path_471" data-name="Path 471" d="M189.383,54.983a2.83,2.83,0,0,1,1.543.386,3.44,3.44,0,0,1,1.061.965,2.512,2.512,0,0,1,.386,1.447,2.808,2.808,0,0,1-2.99,2.8H186.2V51.8h1.061v3.087h2.122Zm-.1,4.63a1.908,1.908,0,0,0,1.35-.482,1.7,1.7,0,0,0,.579-1.254,1.555,1.555,0,0,0-.579-1.254,1.68,1.68,0,0,0-1.35-.482h-2.026v3.569h2.026Zm4.34-7.813h1.061v8.777h-1.061Z" transform="translate(-88.01 -51.704)" fill="#fff"/>
      <path id="Path_472" data-name="Path 472" d="M202.987,51.8a3.178,3.178,0,0,1,2.122.772,2.627,2.627,0,0,1,.868,2.026,2.808,2.808,0,0,1-2.99,2.8h-2.026v3.183H199.9V51.8Zm-.1,4.63a2.091,2.091,0,0,0,1.35-.482,1.481,1.481,0,0,0,.482-1.254,1.834,1.834,0,0,0-.482-1.254,1.908,1.908,0,0,0-1.35-.482h-2.026V56.43Z" transform="translate(-88.496 -51.704)" fill="#fff"/>
      <path id="Path_473" data-name="Path 473" d="M217.209,59.513a4.915,4.915,0,0,1-6.559,0,4.433,4.433,0,0,1-1.35-3.279,4.593,4.593,0,0,1,1.35-3.279,4.915,4.915,0,0,1,6.559,0,4.657,4.657,0,0,1,0,6.559Zm-5.787-.772a3.272,3.272,0,0,0,2.508.965,3.416,3.416,0,0,0,2.508-.965,3.474,3.474,0,0,0-2.508-5.98,3.416,3.416,0,0,0-2.508.965,3.272,3.272,0,0,0-.965,2.508A3.667,3.667,0,0,0,211.422,58.741Z" transform="translate(-88.829 -51.7)" fill="#fff"/>
      <path id="Path_474" data-name="Path 474" d="M227.823,56.044a2.111,2.111,0,0,1,.965.868,2.736,2.736,0,0,1,.386,1.254A2.415,2.415,0,0,1,228.4,59.9a2.627,2.627,0,0,1-1.929.675H223V51.8h3.472a2.188,2.188,0,0,1,1.736.675,1.987,1.987,0,0,1,.675,1.64,2.568,2.568,0,0,1-.289,1.157A1.974,1.974,0,0,1,227.823,56.044Zm0-1.833a1.394,1.394,0,0,0-.193-.675,1.162,1.162,0,0,0-.482-.482,1.788,1.788,0,0,0-.675-.193h-2.315v2.6h2.411a1.238,1.238,0,0,0,.965-.386A1.179,1.179,0,0,0,227.823,54.211Zm-1.35,5.3a1.317,1.317,0,0,0,1.061-.386,1.382,1.382,0,0,0,.482-1.061,1.549,1.549,0,0,0-.482-1.061,1.45,1.45,0,0,0-1.061-.386h-2.411v2.894Z" transform="translate(-89.315 -51.704)" fill="#fff"/>
      <path id="Path_475" data-name="Path 475" d="M239.638,60.577l-.868-2.122h-4.244l-.868,2.122H232.5l3.569-8.777h1.061l3.665,8.777Zm-3.087-7.234-1.64,4.148h3.376Z" transform="translate(-89.652 -51.704)" fill="#fff"/>
    </g>
    <g id="Group_667" data-name="Group 667" transform="translate(281.986 47.655)">
      <path id="Path_476" data-name="Path 476" d="M106.316,24.279h-2.8L101.59,12.03l-5.5,11.96h-.675L89.823,12.126l-1.929,12.25H85L87.8,7.5h2.7L95.61,18.878,100.818,7.4h2.8Z" transform="translate(-85 -6.918)" fill="#ef1a2a"/>
      <path id="Path_477" data-name="Path 477" d="M118.148,24.665a6.927,6.927,0,0,1-4.919-1.833A6.122,6.122,0,0,1,111.3,18.01V7.4h2.8V17.817a4,4,0,0,0,1.157,2.99,4.2,4.2,0,0,0,5.787,0,4,4,0,0,0,1.157-2.99V7.4H125V18.01a6.618,6.618,0,0,1-1.929,4.823A7.378,7.378,0,0,1,118.148,24.665Z" transform="translate(-85.933 -6.918)" fill="#ef1a2a"/>
      <path id="Path_478" data-name="Path 478" d="M136.266,24.551a7.546,7.546,0,0,1-3.376-.675,4.852,4.852,0,0,1-2.218-1.929,5.987,5.987,0,0,1-.772-2.99h2.8a2.483,2.483,0,0,0,.965,2.122,4.3,4.3,0,0,0,2.508.772,3.948,3.948,0,0,0,2.411-.675,2.089,2.089,0,0,0,.965-1.833,2.124,2.124,0,0,0-.1-.772,1.23,1.23,0,0,0-.386-.579,2.018,2.018,0,0,0-.579-.386c-.193-.1-.482-.193-.868-.386a4.484,4.484,0,0,1-.868-.289,8.924,8.924,0,0,1-.965-.289,10.012,10.012,0,0,1-1.157-.289c-.289-.1-.579-.193-1.061-.386a5.616,5.616,0,0,1-1.061-.482l-.868-.579a5.821,5.821,0,0,1-.772-.772,5.614,5.614,0,0,1-.482-1.061,5.693,5.693,0,0,1-.193-1.35,4.356,4.356,0,0,1,1.64-3.569,7.886,7.886,0,0,1,8.681.1,4.81,4.81,0,0,1,1.543,3.762h-2.7a2.428,2.428,0,0,0-.868-1.929,3.381,3.381,0,0,0-2.218-.675,4,4,0,0,0-2.218.579,1.738,1.738,0,0,0-.868,1.543,1.817,1.817,0,0,0,.193.772,1.418,1.418,0,0,0,.482.579c.193.1.482.289.868.482a2.156,2.156,0,0,0,.965.289,10.009,10.009,0,0,0,1.157.289,4.893,4.893,0,0,0,.868.193,2.221,2.221,0,0,1,.868.289,4.484,4.484,0,0,1,.868.289,5.687,5.687,0,0,1,.772.386,5.383,5.383,0,0,1,.772.482l.579.579a2.1,2.1,0,0,1,.482.772c.1.289.193.579.289.965a3.956,3.956,0,0,1,.1,1.061,4.725,4.725,0,0,1-1.736,3.858A5.548,5.548,0,0,1,136.266,24.551Z" transform="translate(-86.592 -6.9)" fill="#ef1a2a"/>
      <path id="Path_479" data-name="Path 479" d="M147.4,24.279V7.4h2.8V24.279Z" transform="translate(-87.213 -6.918)" fill="#ef1a2a"/>
      <path id="Path_480" data-name="Path 480" d="M163.581,24.555a8.36,8.36,0,0,1-6.173-2.508,8.581,8.581,0,0,1-2.508-6.27A8.568,8.568,0,0,1,163.581,7a9.233,9.233,0,0,1,3.665.772,7,7,0,0,1,2.8,2.218,7.929,7.929,0,0,1,1.543,3.279h-2.8a4.618,4.618,0,0,0-2.026-2.6,5.475,5.475,0,0,0-3.279-.965,5.318,5.318,0,0,0-4.148,1.736,5.814,5.814,0,0,0-1.64,4.34,6.215,6.215,0,0,0,1.64,4.34,5.46,5.46,0,0,0,4.148,1.736,5.847,5.847,0,0,0,3.376-1.061,5.43,5.43,0,0,0,2.026-2.8h2.8a7.625,7.625,0,0,1-2.894,4.726A7.321,7.321,0,0,1,163.581,24.555Z" transform="translate(-87.479 -6.904)" fill="#ef1a2a"/>
      <path id="Path_481" data-name="Path 481" d="M203.123,7.4h2.894l-5.208,16.879H198.3l-4.244-10.9-4.148,10.9H187.5L182,7.4h2.99l3.762,12.443,4.726-12.25h1.061l4.823,12.25Z" transform="translate(-88.44 -6.918)" fill="#ef1a2a"/>
      <path id="Path_482" data-name="Path 482" d="M221.411,24.279l-1.447-3.665H212.44l-1.447,3.665H208.1L214.852,7.4h2.6L224.4,24.279Zm-5.3-13.214-2.8,7.138H218.9Z" transform="translate(-89.365 -6.918)" fill="#ef1a2a"/>
      <path id="Path_483" data-name="Path 483" d="M240.247,7.4,234.17,17.528v6.752h-2.894V17.528L225.2,7.4h2.99l4.533,7.523L237.257,7.4h2.99Z" transform="translate(-89.972 -6.918)" fill="#ef1a2a"/>
    </g>
    <path id="Контур_6" d="M0,34.82A33.117,33.117,0,0,1,32.891,1.64a.256.256,0,0,1,.289.289V4.437a.256.256,0,0,1-.289.289A30.143,30.143,0,1,0,63.37,34.82,30.41,30.41,0,0,0,59.7,20.352a1.861,1.861,0,0,1-.289-.965v-4.34c0-.193.193-.289.289-.1l.289.386a32.19,32.19,0,0,1,6.27,19.484A33.132,33.132,0,1,1,0,34.82Zm6.462,0A26.781,26.781,0,0,1,32.891,8.1c.1,0,.289.1.289.193V10.8c0,.193-.1.289-.193.289h-.1a23.915,23.915,0,1,0,8.3,1.447V16.3a20.269,20.269,0,1,1-8.3-1.64.256.256,0,0,1,.289.289v2.411c0,.193-.1.289-.193.289h-.1a17.172,17.172,0,1,0,8.2,1.929V35.5a7.99,7.99,0,1,1-7.234-8.681,7.236,7.236,0,0,1,2.894.868V3.665h0V.289A.256.256,0,0,1,37.038,0h.1a34.968,34.968,0,0,1,19,8.3.8.8,0,0,1,.289.772V14.95c0,.289-.193.386-.386.193-.1-.1-.1-.193-.193-.193A29.732,29.732,0,0,0,41.186,5.787V9.452A26.666,26.666,0,1,1,6.462,34.82Z" transform="translate(200 41)" fill="#ff0027" fill-rule="evenodd"/>
  </g>
</svg>
