<svg xmlns="http://www.w3.org/2000/svg" width="60.448" height="60.057" viewBox="0 0 60.448 60.057">
  <g id="price-6" transform="translate(-215.999 1975.5)">
    <path id="path75" d="M216-1975.5v60h60v-60Z" fill="none" fill-rule="evenodd"/>
    <path id="path76" d="M274.729-1964.888l-4.867-3.5a3.729,3.729,0,0,0-5.518.972l-27.577,44.8c-4.206,6.53-11.144,6.973-15.878,3.658-4.566-3.2-5.925-10.317-1.143-17.147,3.373-4.815,6.29-9.616,6.88-13.8a10.836,10.836,0,0,0-1-6.773,10.7,10.7,0,0,0-4.41-4.029c-1.181-.557-2.077-1.315-2.128-1.886l26.786-7.53a3.214,3.214,0,0,1-.39,2.744,20.933,20.933,0,0,0-2.24,5.687c-.78,5.115-1.286,10.5-6.58,18.018l-8.607,12.288c-2.113,3.029,1.319,4.944,3.2,2.257l29.869-42.467c1.351-1.886,3.916-4.258,7.251-1.6a8.261,8.261,0,0,1,2.33,4.815" transform="translate(0.322 0.477)" fill="none" stroke="#ff0026" stroke-linecap="round" stroke-linejoin="round" stroke-miterlimit="79.84" stroke-width="2" fill-rule="evenodd"/>
    <path id="path77" d="M236.709-1947.51l3.171,1.93" transform="translate(8.874 12.005)" fill="none" stroke="#ff0026" stroke-linecap="round" stroke-linejoin="round" stroke-miterlimit="79.84" stroke-width="2" fill-rule="evenodd"/>
    <path id="path78" d="M240.564-1947.59l-2.494,4.1" transform="translate(9.457 11.97)" fill="none" stroke="#ff0026" stroke-linecap="round" stroke-linejoin="round" stroke-miterlimit="79.84" stroke-width="2" fill-rule="evenodd"/>
    <path id="path79" d="M233.628-1942.19l3.066,1.858" transform="translate(7.554 14.286)" fill="none" stroke="#ff0026" stroke-linecap="round" stroke-linejoin="round" stroke-miterlimit="79.84" stroke-width="2" fill-rule="evenodd"/>
    <path id="path80" d="M237.394-1942.31l-2.467,4.06" transform="translate(8.111 14.231)" fill="none" stroke="#ff0026" stroke-linecap="round" stroke-linejoin="round" stroke-miterlimit="79.84" stroke-width="2" fill-rule="evenodd"/>
    <path id="path81" d="M242.131-1962.911l-3.382-2.359" transform="translate(9.748 4.388)" fill="none" stroke="#ff0026" stroke-linecap="round" stroke-linejoin="round" stroke-miterlimit="79.84" stroke-width="2" fill-rule="evenodd"/>
    <path id="path82" d="M240.344-1966.52l-2.467,3.531" transform="translate(9.375 3.851)" fill="none" stroke="#ff0026" stroke-linecap="round" stroke-linejoin="round" stroke-miterlimit="79.84" stroke-width="2" fill-rule="evenodd"/>
    <path id="path83" d="M245.313-1967.447l-3.382-2.373" transform="translate(11.111 2.439)" fill="none" stroke="#ff0026" stroke-linecap="round" stroke-linejoin="round" stroke-miterlimit="79.84" stroke-width="2" fill-rule="evenodd"/>
    <path id="path84" d="M243.558-1971.09l-2.516,3.6" transform="translate(10.731 1.894)" fill="none" stroke="#ff0026" stroke-linecap="round" stroke-linejoin="round" stroke-miterlimit="79.84" stroke-width="2" fill-rule="evenodd"/>
    <path id="path85" d="M240.473-1967.88l-15.545,4.56" transform="translate(3.824 3.268)" fill="none" stroke="#ff0026" stroke-linecap="round" stroke-linejoin="round" stroke-miterlimit="79.84" stroke-width="2" fill-rule="evenodd"/>
  </g>
</svg>
