<svg xmlns="http://www.w3.org/2000/svg" width="60.085" height="60" viewBox="0 0 60.085 60">
  <g id="price-7" transform="translate(-67.457 1926)">
    <path id="path11" d="M67.5-1926v60h60v-60Z" transform="translate(0 0)" fill="none" fill-rule="evenodd"/>
    <path id="path12" d="M68.25-1916.031l8.585-1.073v-2.146" transform="translate(0.324 2.894)" fill="none" stroke="#ff0026" stroke-linecap="round" stroke-linejoin="round" stroke-miterlimit="79.84" stroke-width="2" fill-rule="evenodd"/>
    <path id="path13" d="M82.835-1916.031,74.25-1917.1v-2.146" transform="translate(2.891 2.894)" fill="none" stroke="#ff0026" stroke-linecap="round" stroke-linejoin="round" stroke-miterlimit="79.84" stroke-width="2" fill-rule="evenodd"/>
    <path id="path14" d="M68.25-1914.75l8.585,1.073v37.559" transform="translate(0.324 4.767)" fill="none" stroke="#ff0026" stroke-linecap="round" stroke-linejoin="round" stroke-miterlimit="79.84" stroke-width="2" fill-rule="evenodd"/>
    <path id="path15" d="M82.835-1914.75l-8.585,1.073" transform="translate(2.891 4.825)" fill="none" stroke="#ff0026" stroke-linecap="round" stroke-linejoin="round" stroke-miterlimit="79.84" stroke-width="2" fill-rule="evenodd"/>
    <path id="path16" d="M69.75-1885.6l6.439-2.146,6.439,2.146" transform="translate(0.97 16.399)" fill="none" stroke="#ff0026" stroke-linecap="round" stroke-linejoin="round" stroke-miterlimit="79.84" stroke-width="2" fill-rule="evenodd"/>
    <path id="path17" d="M94.95-1905.75A13.959,13.959,0,0,1,108.9-1891.8a13.958,13.958,0,0,1-13.952,13.95A13.958,13.958,0,0,1,81-1891.8,13.958,13.958,0,0,1,94.95-1905.75Z" transform="translate(5.759 8.644)" fill="none" stroke="#ff0026" stroke-miterlimit="79.84" stroke-width="2" fill-rule="evenodd"/>
    <path id="path18" d="M82.5-1912.283v5.151a1.722,1.722,0,0,0,1.72,1.717h6.22a1.722,1.722,0,0,0,1.72-1.717v-5.151a1.722,1.722,0,0,0-1.72-1.717h-6.22A1.722,1.722,0,0,0,82.5-1912.283Z" transform="translate(6.422 5.143)" fill="none" stroke="#ff0026" stroke-miterlimit="79.84" stroke-width="2" fill-rule="evenodd"/>
    <path id="path19" d="M101.909-1912.283v5.151a1.722,1.722,0,0,1-1.72,1.717H93.97a1.722,1.722,0,0,1-1.72-1.717v-5.151A1.722,1.722,0,0,1,93.97-1914h6.22A1.722,1.722,0,0,1,101.909-1912.283Z" transform="translate(10.596 5.143)" fill="none" stroke="#ff0026" stroke-miterlimit="79.84" stroke-width="2" fill-rule="evenodd"/>
    <path id="path20" d="M95.066-1911H82.189l-3.219,7.512H75.75" transform="translate(3.527 6.43)" fill="none" stroke="#ff0026" stroke-linecap="round" stroke-linejoin="round" stroke-miterlimit="79.84" stroke-width="2" fill-rule="evenodd"/>
    <path id="path21" d="M96.75-1922.031l8.585-1.073v-2.146" transform="translate(12.524 0.323)" fill="none" stroke="#ff0026" stroke-linecap="round" stroke-linejoin="round" stroke-miterlimit="79.84" stroke-width="2" fill-rule="evenodd"/>
    <path id="path22" d="M111.335-1922.031l-8.585-1.073v-2.146" transform="translate(15.091 0.323)" fill="none" stroke="#ff0026" stroke-linecap="round" stroke-linejoin="round" stroke-miterlimit="79.84" stroke-width="2" fill-rule="evenodd"/>
    <path id="path23" d="M96.75-1920.75l8.585,1.071v46.066" transform="translate(12.524 2.262)" fill="none" stroke="#ff0026" stroke-linecap="round" stroke-linejoin="round" stroke-miterlimit="79.84" stroke-width="2" fill-rule="evenodd"/>
    <path id="path24" d="M111.335-1920.75l-8.585,1.073" transform="translate(15.091 2.262)" fill="none" stroke="#ff0026" stroke-linecap="round" stroke-linejoin="round" stroke-miterlimit="79.84" stroke-width="2" fill-rule="evenodd"/>
    <path id="path25" d="M98.25-1885.6l6.439-2.146,6.439,2.146" transform="translate(13.152 16.399)" fill="none" stroke="#ff0026" stroke-linecap="round" stroke-linejoin="round" stroke-miterlimit="79.84" stroke-width="2" fill-rule="evenodd"/>
    <path id="path26" d="M90.75-1906.5v2.146" transform="translate(9.964 8.363)" fill="none" stroke="#ff0026" stroke-linecap="round" stroke-linejoin="round" stroke-miterlimit="79.84" stroke-width="2" fill-rule="evenodd"/>
    <path id="path27" d="M90.75-1887v2.146" transform="translate(9.964 16.722)" fill="none" stroke="#ff0026" stroke-linecap="round" stroke-linejoin="round" stroke-miterlimit="79.84" stroke-width="2" fill-rule="evenodd"/>
    <path id="path28" d="M82.707-1902.75l1.644,1.373" transform="translate(6.516 9.971)" fill="none" stroke="#ff0026" stroke-linecap="round" stroke-linejoin="round" stroke-miterlimit="79.84" stroke-width="2" fill-rule="evenodd"/>
    <path id="path29" d="M97.644-1890.21l1.644,1.373" transform="translate(12.916 15.339)" fill="none" stroke="#ff0026" stroke-linecap="round" stroke-linejoin="round" stroke-miterlimit="79.84" stroke-width="2" fill-rule="evenodd"/>
    <path id="path30" d="M80.25-1896H82.4" transform="translate(5.463 12.867)" fill="none" stroke="#ff0026" stroke-linecap="round" stroke-linejoin="round" stroke-miterlimit="79.84" stroke-width="2" fill-rule="evenodd"/>
    <path id="path31" d="M99.75-1896H101.9" transform="translate(13.818 12.867)" fill="none" stroke="#ff0026" stroke-linecap="round" stroke-linejoin="round" stroke-miterlimit="79.84" stroke-width="2" fill-rule="evenodd"/>
    <path id="path32" d="M82.707-1888.832l1.643-1.388" transform="translate(6.516 15.335)" fill="none" stroke="#ff0026" stroke-linecap="round" stroke-linejoin="round" stroke-miterlimit="79.84" stroke-width="2" fill-rule="evenodd"/>
    <path id="path33" d="M97.645-1901.377l1.643-1.373" transform="translate(12.917 9.971)" fill="none" stroke="#ff0026" stroke-linecap="round" stroke-linejoin="round" stroke-miterlimit="79.84" stroke-width="2" fill-rule="evenodd"/>
  </g>
</svg>
