<svg xmlns="http://www.w3.org/2000/svg" width="60" height="60" viewBox="0 0 60 60">
  <g id="price-8" transform="translate(-215.999 2025)">
    <path id="path116" d="M216-2025v60h60v-60Z" transform="translate(0)" fill="none" fill-rule="evenodd"/>
    <path id="path117" d="M238.824-2009.25a8.926,8.926,0,0,0-4.586,1.194,2.234,2.234,0,0,0-1.03,1.517,69.3,69.3,0,0,0-.712,11.8" transform="translate(7.116 6.88)" fill="none" stroke="#ff0026" stroke-linecap="round" stroke-linejoin="round" stroke-miterlimit="79.84" stroke-width="2" fill-rule="evenodd"/>
    <path id="path118" d="M232.661-1992.875l-3.161-7.375,10.535,5.268,10.535-5.268-3.161,7.375" transform="translate(5.964 10.701)" fill="none" stroke="#ff0026" stroke-linecap="round" stroke-linejoin="round" stroke-miterlimit="79.84" stroke-width="2" fill-rule="evenodd"/>
    <path id="path119" d="M229.5-1994.25c-.308,2.472,5.268,3.161,9.482,3.161h2.107c4.214,0,9.79-.688,9.482-3.161" transform="translate(5.961 13.231)" fill="none" stroke="#ff0026" stroke-linecap="round" stroke-linejoin="round" stroke-miterlimit="79.84" stroke-width="2" fill-rule="evenodd"/>
    <path id="path120" d="M232.661-1991.25l-3.161,7.375,10.535-5.268,10.535,5.268-3.161-7.375" transform="translate(5.964 14.675)" fill="none" stroke="#ff0026" stroke-linecap="round" stroke-linejoin="round" stroke-miterlimit="79.84" stroke-width="2" fill-rule="evenodd"/>
    <path id="path121" d="M233.25-1987.5l1.054,2.107h8.428l1.054-2.107" transform="translate(7.482 16.193)" fill="none" stroke="#ff0026" stroke-linecap="round" stroke-linejoin="round" stroke-miterlimit="79.84" stroke-width="2" fill-rule="evenodd"/>
    <path id="path122" d="M237-2009.25a8.926,8.926,0,0,1,4.586,1.194,2.234,2.234,0,0,1,1.03,1.517,69.3,69.3,0,0,1,.712,11.8" transform="translate(9.06 6.88)" fill="none" stroke="#ff0026" stroke-linecap="round" stroke-linejoin="round" stroke-miterlimit="79.84" stroke-width="2" fill-rule="evenodd"/>
    <path id="path123" d="M245.143-2002.5H232.5" transform="translate(7.178 9.651)" fill="none" stroke="#ff0026" stroke-linecap="round" stroke-linejoin="round" stroke-miterlimit="79.84" stroke-width="2" fill-rule="evenodd"/>
    <path id="path124" d="M237-2024.25c5.268,0,6.321,3.161,6.321,7.375a14.436,14.436,0,0,1-1.054,5.268c-.5.941-1.923,2.894-.992,3.47,1.882.688,5.176,1.391,6.224,2.36,1.791,1.644,1.884,2.809,2.142,5.759" transform="translate(9.136 0.304)" fill="none" stroke="#ff0026" stroke-linecap="round" stroke-linejoin="round" stroke-miterlimit="79.84" stroke-width="2" fill-rule="evenodd"/>
    <path id="path125" d="M240.643-2024.25c-5.268,0-6.321,3.161-6.321,7.375a14.437,14.437,0,0,0,1.054,5.268c.5.941,1.923,2.894.992,3.47-1.882.688-5.176,1.391-6.224,2.36-1.791,1.644-1.884,2.809-2.142,5.759" transform="translate(5.221 0.304)" fill="none" stroke="#ff0026" stroke-linecap="round" stroke-linejoin="round" stroke-miterlimit="79.84" stroke-width="2" fill-rule="evenodd"/>
    <path id="path126" d="M257.143-1972.682a4.225,4.225,0,0,0,3.161-3.232c.964-4.581,1.054-12.926,1.054-21.414-.226-2.642-.308-3.677-1.874-5.156-.917-.862-3.8-1.493-5.448-2.1-.813-.517.427-2.269.87-3.117a14.2,14.2,0,0,0,1.184-4.84c0-3.778-1.184-6.463-5.794-6.463s-5.795,2.686-5.795,6.463a12.889,12.889,0,0,0,.569,3.174" transform="translate(12.535 2.428)" fill="none" stroke="#ff0026" stroke-linecap="round" stroke-linejoin="round" stroke-miterlimit="79.84" stroke-width="2" fill-rule="evenodd"/>
    <path id="path127" d="M253.5-1997.25v18.964" transform="translate(16.178 12.247)" fill="none" stroke="#ff0026" stroke-linecap="round" stroke-linejoin="round" stroke-miterlimit="79.84" stroke-width="2" fill-rule="evenodd"/>
    <path id="path128" d="M221.714-1972.682a4.225,4.225,0,0,1-3.161-3.232c-.964-4.581-1.054-12.926-1.054-21.414.226-2.642.308-3.677,1.874-5.156.917-.862,3.8-1.493,5.448-2.1.813-.517-.427-2.269-.87-3.117a14.2,14.2,0,0,1-1.184-4.84c0-3.778,1.184-6.463,5.794-6.463s5.795,2.686,5.795,6.463a12.888,12.888,0,0,1-.569,3.174" transform="translate(0.608 2.428)" fill="none" stroke="#ff0026" stroke-linecap="round" stroke-linejoin="round" stroke-miterlimit="79.84" stroke-width="2" fill-rule="evenodd"/>
    <path id="path129" d="M220.5-1997.25v18.964" transform="translate(1.822 12.247)" fill="none" stroke="#ff0026" stroke-linecap="round" stroke-linejoin="round" stroke-miterlimit="79.84" stroke-width="2" fill-rule="evenodd"/>
    <path id="path130" d="M237-1986v3.161" transform="translate(9 16.8)" fill="none" stroke="#ff0026" stroke-linecap="round" stroke-linejoin="round" stroke-miterlimit="79.84" stroke-width="2" fill-rule="evenodd"/>
  </g>
</svg>
