<svg xmlns="http://www.w3.org/2000/svg" width="59.998" height="60" viewBox="0 0 59.998 60">
  <g id="price-5" transform="translate(-166.499 1975.5)">
    <path id="path54" d="M166.5-1975.5v60h60v-60Z" transform="translate(0 0)" fill="none" fill-rule="evenodd"/>
    <path id="path55" d="M194.41-1958.46a9.615,9.615,0,0,1,1.85,4.614" transform="translate(11.959 7.309)" fill="none" stroke="#ff0026" stroke-linecap="round" stroke-linejoin="round" stroke-miterlimit="79.84" stroke-width="2" fill-rule="evenodd"/>
    <path id="path56" d="M201.267-1949.26c-1.174.514-2.258,1.028-2.7,2.285-1.977-2.457-4.478-.514-6.4,3.3-1.231,2.914-.114,3.943,1.616,4.543a5.614,5.614,0,0,0-3.477,4.643,7.871,7.871,0,0,1-2.443,4.242c-3.8,3.8-10.332,3.4-16.776-3.057" transform="translate(1.965 11.261)" fill="none" stroke="#ff0026" stroke-linecap="round" stroke-linejoin="round" stroke-miterlimit="79.84" stroke-width="2" fill-rule="evenodd"/>
    <path id="path57" d="M192.934-1960.8a9.579,9.579,0,0,0-4.7-1.9" transform="translate(9.311 5.49)" fill="none" stroke="#ff0026" stroke-linecap="round" stroke-linejoin="round" stroke-miterlimit="79.84" stroke-width="2" fill-rule="evenodd"/>
    <path id="path58" d="M188.589-1959.04a3.984,3.984,0,0,1-2.177,2.457c2.456,1.971.5,4.471-3.31,6.4-2.9,1.229-3.94.114-4.544-1.614a5.614,5.614,0,0,1-4.638,3.471,7.9,7.9,0,0,0-4.241,2.443c-3.8,3.8-3.4,10.328,3.05,16.77" transform="translate(0.322 7.071)" fill="none" stroke="#ff0026" stroke-linecap="round" stroke-linejoin="round" stroke-miterlimit="79.84" stroke-width="2" fill-rule="evenodd"/>
    <path id="path59" d="M172.735-1934.349l4.973-4.971,5.8-2.729-3.078-3.071" transform="translate(2.672 13.035)" fill="none" stroke="#ff0026" stroke-linecap="round" stroke-linejoin="round" stroke-miterlimit="79.84" stroke-width="2" fill-rule="evenodd"/>
    <path id="path60" d="M170.581-1936.509l4.971-4.971,2.724-5.8,3.077,3.085" transform="translate(1.749 12.11)" fill="none" stroke="#ff0026" stroke-linecap="round" stroke-linejoin="round" stroke-miterlimit="79.84" stroke-width="2" fill-rule="evenodd"/>
    <path id="path61" d="M176.89-1939.885l-3.077-3.086" transform="translate(3.134 13.953)" fill="none" stroke="#ff0026" stroke-linecap="round" stroke-linejoin="round" stroke-miterlimit="79.84" stroke-width="2" fill-rule="evenodd"/>
    <path id="path62" d="M190.977-1951.595l-1.773,1.885-4.617-4.614,1.756-1.657" transform="translate(7.75 8.373)" fill="none" stroke="#ff0026" stroke-linecap="round" stroke-linejoin="round" stroke-miterlimit="79.84" stroke-width="2" fill-rule="evenodd"/>
    <path id="path63" d="M193.558-1952.444l16.426-17.456" transform="translate(11.594 2.399)" fill="none" stroke="#ff0026" stroke-linecap="round" stroke-linejoin="round" stroke-miterlimit="79.84" stroke-width="2" fill-rule="evenodd"/>
    <path id="path64" d="M203.979-1969.827l2.308,2.314,3.078-4.614-1.538-1.543" transform="translate(16.059 0.784)" fill="none" stroke="#ff0026" stroke-linecap="round" stroke-linejoin="round" stroke-miterlimit="79.84" stroke-width="2" fill-rule="evenodd"/>
    <path id="path65" d="M190.728-1955.69l17.39-16.37" transform="translate(10.382 1.474)" fill="none" stroke="#ff0026" stroke-linecap="round" stroke-linejoin="round" stroke-miterlimit="79.84" stroke-width="2" fill-rule="evenodd"/>
    <path id="path66" d="M204.671-1969.365l-2.307-2.3,4.617-3.086,1.538,1.543" transform="translate(15.367 0.321)" fill="none" stroke="#ff0026" stroke-linecap="round" stroke-linejoin="round" stroke-miterlimit="79.84" stroke-width="2" fill-rule="evenodd"/>
    <path id="path67" d="M203.979-1967.75l.77.771" transform="translate(16.059 3.321)" fill="none" stroke="#ff0026" stroke-linecap="round" stroke-linejoin="round" stroke-miterlimit="79.84" stroke-width="2" fill-rule="evenodd"/>
    <path id="path68" d="M201.824-1965.59l.77.771" transform="translate(15.136 4.251)" fill="none" stroke="#ff0026" stroke-linecap="round" stroke-linejoin="round" stroke-miterlimit="79.84" stroke-width="2" fill-rule="evenodd"/>
    <path id="path69" d="M200.979-1970.749l-.771-.771" transform="translate(14.444 1.705)" fill="none" stroke="#ff0026" stroke-linecap="round" stroke-linejoin="round" stroke-miterlimit="79.84" stroke-width="2" fill-rule="evenodd"/>
    <path id="path70" d="M198.823-1968.589l-.768-.771" transform="translate(13.521 2.631)" fill="none" stroke="#ff0026" stroke-linecap="round" stroke-linejoin="round" stroke-miterlimit="79.84" stroke-width="2" fill-rule="evenodd"/>
    <path id="path71" d="M186.214-1950c0,1.071.066,1.043-.213,1.585l-2.7,3.843a1.14,1.14,0,0,0,0,1.543" transform="translate(7.07 10.939)" fill="none" stroke="#ff0026" stroke-linecap="round" stroke-linejoin="round" stroke-miterlimit="79.84" stroke-width="2" fill-rule="evenodd"/>
    <path id="path72" d="M185.09-1952.248c-1.071,0-1.048-.072-1.581.214l-3.847,2.7a1.137,1.137,0,0,1-1.54,0" transform="translate(4.98 9.97)" fill="none" stroke="#ff0026" stroke-linecap="round" stroke-linejoin="round" stroke-miterlimit="79.84" stroke-width="2" fill-rule="evenodd"/>
    <path id="path73" d="M213.056-1931.464,179.2-1965.319c1.673-.814,3.077-1.543,4.617,0l27.7,27.7-.769,3.843" transform="translate(5.442 3.985)" fill="none" stroke="#ff0026" stroke-linecap="round" stroke-linejoin="round" stroke-miterlimit="79.84" stroke-width="2" fill-rule="evenodd"/>
    <path id="path74" d="M200.361-1948.35l-2.308,2.3" transform="translate(13.52 11.645)" fill="none" stroke="#ff0026" stroke-linecap="round" stroke-linejoin="round" stroke-miterlimit="79.84" stroke-width="2" fill-rule="evenodd"/>
  </g>
</svg>
