<svg xmlns="http://www.w3.org/2000/svg" width="60.335" height="60" viewBox="0 0 60.335 60">
  <g id="price-10" transform="translate(0.334 0)">
    <path id="path131" d="M166.5-1926v60h60v-60Z" transform="translate(-166.499 1926)" fill="none" fill-rule="evenodd"/>
    <path id="path132" d="M186.667-1918.5h-5.461L169.5-1870.222h17.167" transform="translate(-165.207 1929.164)" fill="none" stroke="#ff0026" stroke-linecap="round" stroke-linejoin="round" stroke-miterlimit="79.84" stroke-width="2" fill-rule="evenodd"/>
    <path id="path133" d="M172.989-1896.75H184.93" transform="translate(-163.72 1938.546)" fill="none" stroke="#ff0026" stroke-linecap="round" stroke-linejoin="round" stroke-miterlimit="79.84" stroke-width="2" fill-rule="evenodd"/>
    <path id="path134" d="M181.5-1918.5h5.46l1.563,6.451" transform="translate(-160.073 1929.215)" fill="none" stroke="#ff0026" stroke-linecap="round" stroke-linejoin="round" stroke-miterlimit="79.84" stroke-width="2" fill-rule="evenodd"/>
    <path id="path135" d="M190.353-1908.72l8.312,34.288H181.5" transform="translate(-160.081 1933.374)" fill="none" stroke="#ff0026" stroke-linecap="round" stroke-linejoin="round" stroke-miterlimit="79.84" stroke-width="2" fill-rule="evenodd"/>
    <path id="path136" d="M193.277-1896.75h-11.94" transform="translate(-160.147 1938.546)" fill="none" stroke="#ff0026" stroke-linecap="round" stroke-linejoin="round" stroke-miterlimit="79.84" stroke-width="2" fill-rule="evenodd"/>
    <path id="path137" d="M187.457-1895.458a4.386,4.386,0,0,0-4.479-4.292,4.386,4.386,0,0,0-4.479,4.292" transform="translate(-161.36 1937.256)" fill="none" stroke="#ff0026" stroke-linecap="round" stroke-linejoin="round" stroke-miterlimit="79.84" stroke-width="2" fill-rule="evenodd"/>
    <path id="path138" d="M182.319-1895.354l-10.2-12.116" transform="translate(-164.079 1933.941)" fill="none" stroke="#ff0026" stroke-linecap="round" stroke-linejoin="round" stroke-miterlimit="79.84" stroke-width="2" fill-rule="evenodd"/>
    <path id="path139" d="M170.3-1909.631l-3.051-3.619" transform="translate(-166.175 1931.467)" fill="none" stroke="#ff0026" stroke-linecap="round" stroke-linejoin="round" stroke-miterlimit="79.84" stroke-width="2" fill-rule="evenodd"/>
    <path id="path140" d="M173.667-1906.832a2.7,2.7,0,0,0-.747-3.733,2.694,2.694,0,0,0-3.731.758,2.677,2.677,0,0,0,.747,3.719A2.678,2.678,0,0,0,173.667-1906.832Z" transform="translate(-165.535 1932.426)" fill="none" stroke="#ff0026" stroke-miterlimit="79.84" stroke-width="2" fill-rule="evenodd"/>
    <path id="path141" d="M181.5-1893.114V-1915.5" transform="translate(-160.07 1930.494)" fill="none" stroke="#ff0026" stroke-linecap="round" stroke-linejoin="round" stroke-miterlimit="79.84" stroke-width="2" fill-rule="evenodd"/>
    <path id="path142" d="M183.278-1915.01h-2.985" transform="translate(-160.589 1930.714)" fill="none" stroke="#ff0026" stroke-linecap="round" stroke-linejoin="round" stroke-miterlimit="79.84" stroke-width="2" fill-rule="evenodd"/>
    <path id="path143" d="M183.278-1910.84h-2.985" transform="translate(-160.589 1932.502)" fill="none" stroke="#ff0026" stroke-linecap="round" stroke-linejoin="round" stroke-miterlimit="79.84" stroke-width="2" fill-rule="evenodd"/>
    <path id="path144" d="M183.278-1906.66h-2.985" transform="translate(-160.589 1934.295)" fill="none" stroke="#ff0026" stroke-linecap="round" stroke-linejoin="round" stroke-miterlimit="79.84" stroke-width="2" fill-rule="evenodd"/>
    <path id="path145" d="M183.278-1902.49h-2.985" transform="translate(-160.589 1936.084)" fill="none" stroke="#ff0026" stroke-linecap="round" stroke-linejoin="round" stroke-miterlimit="79.84" stroke-width="2" fill-rule="evenodd"/>
    <path id="path146" d="M211.2-1911.235l-13.945,3v-4.506a1.716,1.716,0,0,1,1.386-1.774l11.085-2.446c1.06-.2,1.475.286,1.475,1.216Z" transform="translate(-153.342 1929.857)" fill="none" stroke="#ff0026" stroke-linecap="round" stroke-linejoin="round" stroke-miterlimit="79.84" stroke-width="2" fill-rule="evenodd"/>
    <path id="path147" d="M197.25-1911.75v12.459" transform="translate(-153.321 1932.106)" fill="none" stroke="#ff0026" stroke-linecap="round" stroke-linejoin="round" stroke-miterlimit="79.84" stroke-width="2" fill-rule="evenodd"/>
    <path id="path148" d="M195.753-1905a3.7,3.7,0,0,1,3.756,3.7,3.818,3.818,0,0,1-3.756,3.805,3.7,3.7,0,0,1-3.753-3.7A3.818,3.818,0,0,1,195.753-1905Z" transform="translate(-155.577 1935.003)" fill="none" stroke="#ff0026" stroke-miterlimit="79.84" stroke-width="2" fill-rule="evenodd"/>
    <path id="path149" d="M207-1913.48v12.459" transform="translate(-149.146 1931.365)" fill="none" stroke="#ff0026" stroke-linecap="round" stroke-linejoin="round" stroke-miterlimit="79.84" stroke-width="2" fill-rule="evenodd"/>
    <path id="path150" d="M188.255-1914a3.7,3.7,0,0,1,3.755,3.7,3.827,3.827,0,0,1-3.755,3.8,3.7,3.7,0,0,1-3.755-3.7A3.817,3.817,0,0,1,188.255-1914Z" transform="translate(-158.789 1931.144)" fill="none" stroke="#ff0026" stroke-miterlimit="79.84" stroke-width="2" fill-rule="evenodd"/>
    <path id="path151" d="M189.761-1906.113l-.011-13.675a1.923,1.923,0,0,1,1.345-2.017l7.238-1.945v5.364l-8.571,2.3" transform="translate(-156.542 1926.969)" fill="none" stroke="#ff0026" stroke-linecap="round" stroke-linejoin="round" stroke-miterlimit="79.84" stroke-width="2" fill-rule="evenodd"/>
    <path id="path152" d="M205.5-1906.5a3.7,3.7,0,0,1,3.756,3.7,3.819,3.819,0,0,1-3.756,3.805,3.7,3.7,0,0,1-3.753-3.7A3.818,3.818,0,0,1,205.5-1906.5Z" transform="translate(-151.405 1934.359)" fill="none" stroke="#ff0026" stroke-miterlimit="79.84" stroke-width="2" fill-rule="evenodd"/>
  </g>
</svg>
