<svg xmlns="http://www.w3.org/2000/svg" width="60" height="60" viewBox="0 0 60 60">
  <g id="Group_3" transform="translate(-166.499 2025)">
    <path id="path47" d="M166.5-2025v60h60v-60Z" transform="translate(0)" fill="none" fill-rule="evenodd"/>
    <path id="path48" d="M194.056-2014.616a9.688,9.688,0,0,1,2.268-6.177,9.712,9.712,0,0,1,13.668-1.19,9.709,9.709,0,0,1,1.2,13.671,9.738,9.738,0,0,1-5.8,3.329" transform="translate(11.981 0.312)" fill="none" stroke="#ff0026" stroke-linecap="round" stroke-linejoin="round" stroke-miterlimit="79.84" stroke-width="2" fill-rule="evenodd"/>
    <path id="path49" d="M194.3-2017.47l11.394,9.562-4.36,1.884-8.137-6.828,1.1-4.618" transform="translate(11.526 3.252)" fill="none" stroke="#ff0026" stroke-linecap="round" stroke-linejoin="round" stroke-miterlimit="79.84" stroke-width="2" fill-rule="evenodd"/>
    <path id="path50" d="M198.143-2014.21l-16.814,23.346,2.441,2.054" transform="translate(6.425 4.727)" fill="none" stroke="#ff0026" stroke-linecap="round" stroke-linejoin="round" stroke-miterlimit="79.84" stroke-width="2" fill-rule="evenodd"/>
    <path id="path51" d="M205.562-2009.39,185.5-1988.778l-2.444-2.04" transform="translate(7.213 6.797)" fill="none" stroke="#ff0026" stroke-linecap="round" stroke-linejoin="round" stroke-miterlimit="79.84" stroke-width="2" fill-rule="evenodd"/>
    <path id="path52" d="M209.174-2010.588l-10.581-8.882" transform="translate(13.871 2.304)" fill="none" stroke="#ff0026" stroke-linecap="round" stroke-linejoin="round" stroke-miterlimit="79.84" stroke-width="2" fill-rule="evenodd"/>
    <path id="path53" d="M189.355-1991.3c-6.593,7.891-15.757,9.945-20.72-.085a16.388,16.388,0,0,1-1.405-7.126c0-4.547,2.575-9.732,8.644-9.208,2.921.255,6.835,3.173,6.175,10.682-.439,5-1.861,14.237,3.746,19.2a15.859,15.859,0,0,0,11.213,4.094c6.375,0,12.047-3.343,16.432-7.72" transform="translate(0.305 7.7)" fill="none" stroke="#ff0026" stroke-linecap="round" stroke-linejoin="round" stroke-miterlimit="79.84" stroke-width="2" fill-rule="evenodd"/>
  </g>
</svg>
