<svg xmlns="http://www.w3.org/2000/svg" width="57.1" height="35.4" viewBox="0 0 57.1 35.4">
  <g id="price-2" transform="translate(-140.1 -332.3)">
    <g id="Group_144" data-name="Group 144">
      <g id="Group_143" data-name="Group 143">
        <path id="Path_46" data-name="Path 46" d="M195.9,367.7H141.4a1.324,1.324,0,0,1-1.3-1.3V333.6a1.324,1.324,0,0,1,1.3-1.3h54.5a1.324,1.324,0,0,1,1.3,1.3v32.8A1.324,1.324,0,0,1,195.9,367.7Zm-53.2-2.6h52V334.8h-52Z" fill="#231f20"/>
      </g>
    </g>
    <g id="Group_146" data-name="Group 146">
      <g id="Group_145" data-name="Group 145">
        <rect id="Rectangle_46" data-name="Rectangle 46" width="2.5" height="32.4" transform="translate(148.6 333.1)" fill="#231f20"/>
      </g>
    </g>
    <g id="Group_148" data-name="Group 148">
      <g id="Group_147" data-name="Group 147">
        <rect id="Rectangle_47" data-name="Rectangle 47" width="2.5" height="32.4" transform="translate(156.1 333.1)" fill="#231f20"/>
      </g>
    </g>
    <g id="Group_150" data-name="Group 150">
      <g id="Group_149" data-name="Group 149">
        <rect id="Rectangle_48" data-name="Rectangle 48" width="2.5" height="32.4" transform="translate(163.6 333.1)" fill="#231f20"/>
      </g>
    </g>
    <g id="Group_152" data-name="Group 152">
      <g id="Group_151" data-name="Group 151">
        <rect id="Rectangle_49" data-name="Rectangle 49" width="2.5" height="32.4" transform="translate(171.2 333.1)" fill="#231f20"/>
      </g>
    </g>
    <g id="Group_154" data-name="Group 154">
      <g id="Group_153" data-name="Group 153">
        <rect id="Rectangle_50" data-name="Rectangle 50" width="2.5" height="32.4" transform="translate(178.7 333.1)" fill="#231f20"/>
      </g>
    </g>
    <g id="Group_156" data-name="Group 156">
      <g id="Group_155" data-name="Group 155">
        <rect id="Rectangle_51" data-name="Rectangle 51" width="2.5" height="32.4" transform="translate(186.2 333.1)" fill="#231f20"/>
      </g>
    </g>
    <g id="Group_158" data-name="Group 158">
      <g id="Group_157" data-name="Group 157">
        <rect id="Rectangle_52" data-name="Rectangle 52" width="6.2" height="21.7" transform="translate(146.7 333.5)" fill="#231f20"/>
      </g>
    </g>
    <g id="Group_160" data-name="Group 160">
      <g id="Group_159" data-name="Group 159">
        <rect id="Rectangle_53" data-name="Rectangle 53" width="6.2" height="21.7" transform="translate(184.4 333.5)" fill="#231f20"/>
      </g>
    </g>
    <g id="Group_162" data-name="Group 162">
      <g id="Group_161" data-name="Group 161">
        <rect id="Rectangle_54" data-name="Rectangle 54" width="6.2" height="21.7" transform="translate(176.9 333.5)" fill="#231f20"/>
      </g>
    </g>
    <g id="Group_164" data-name="Group 164">
      <g id="Group_163" data-name="Group 163">
        <rect id="Rectangle_55" data-name="Rectangle 55" width="6.2" height="21.7" transform="translate(161.8 333.5)" fill="#231f20"/>
      </g>
    </g>
  </g>
</svg>
