<svg xmlns="http://www.w3.org/2000/svg" width="95.967" height="95.967" viewBox="0 0 95.967 95.967">
  <g id="price-icon-white" transform="translate(0 0)">
    <path id="path127" d="M7.5-102.751V-6.784h95.967v-95.967Z" transform="translate(-7.501 102.751)" fill="none" fill-rule="evenodd"/>
    <path id="path128" d="M25.733-74.981V-91.615c-.117-4.2,2.282-8.994,7.08-6.595,5.6,3.2,7.521,11.27,0,18.393-4.619,4.217-8.858,6.536-13.4,10.194C10.995-62.757,8.539-50.51,16.7-43.312c7.99,5.91,21.186,4.04,21.986-8.116.12-7.125-6.53-12.535-12.972-9.07a6.034,6.034,0,0,0-2.815,6.206c.383,2.67,4.847,6.127,7.421.64" transform="translate(-7.223 103.009)" fill="none" stroke="#fff" stroke-linecap="round" stroke-linejoin="round" stroke-miterlimit="79.84" stroke-width="2" fill-rule="evenodd"/>
    <path id="path129" d="M24.669-43.5v14.395c.368,4.2-1.908,7.174-4.94,7.354A5.775,5.775,0,0,1,14.814-23.8a3.569,3.569,0,0,1-.1-4.626c1.46-1.7,4.662-1.628,5.152.917" transform="translate(-7.076 106.679)" fill="none" stroke="#fff" stroke-linecap="round" stroke-linejoin="round" stroke-miterlimit="79.84" stroke-width="2" fill-rule="evenodd"/>
    <path id="path130" d="M78.75-35.25l8.8,7.2" transform="translate(-2.778 107.225)" fill="none" stroke="#fff" stroke-linecap="round" stroke-linejoin="round" stroke-miterlimit="79.84" stroke-width="2" fill-rule="evenodd"/>
    <path id="path131" d="M83.25-41.25l5.6,2.4" transform="translate(-2.48 106.828)" fill="none" stroke="#fff" stroke-linecap="round" stroke-linejoin="round" stroke-miterlimit="79.84" stroke-width="2" fill-rule="evenodd"/>
    <path id="path132" d="M84.75-48.75h10.4" transform="translate(-2.38 106.331)" fill="none" stroke="#fff" stroke-linecap="round" stroke-linejoin="round" stroke-miterlimit="79.84" stroke-width="2" fill-rule="evenodd"/>
    <path id="path133" d="M49-87.738a7.273,7.273,0,0,1,.017-4.944,7.306,7.306,0,0,1,9.36-4.364,7.3,7.3,0,0,1,4.363,9.359A7.271,7.271,0,0,1,59.5-83.844" transform="translate(-4.778 103.1)" fill="none" stroke="#fff" stroke-linecap="round" stroke-linejoin="round" stroke-miterlimit="79.84" stroke-width="2" fill-rule="evenodd"/>
    <path id="path134" d="M48.894-88.332,59.415-84.5l-2.6,2.459L49.3-84.779l-.409-3.553" transform="translate(-4.757 103.707)" fill="none" stroke="#fff" stroke-linecap="round" stroke-linejoin="round" stroke-miterlimit="79.84" stroke-width="2" fill-rule="evenodd"/>
    <path id="path135" d="M49.644-85,43.761-64.163l2.254.821" transform="translate(-5.097 103.928)" fill="none" stroke="#fff" stroke-linecap="round" stroke-linejoin="round" stroke-miterlimit="79.84" stroke-width="2" fill-rule="evenodd"/>
    <path id="path136" d="M57.018-82.434,48.13-62.692l-2.255-.82" transform="translate(-4.957 104.098)" fill="none" stroke="#fff" stroke-linecap="round" stroke-linejoin="round" stroke-miterlimit="79.84" stroke-width="2" fill-rule="evenodd"/>
    <path id="path137" d="M45.977-64.688,44.336-60.18" transform="translate(-5.059 105.274)" fill="none" stroke="#fff" stroke-linecap="round" stroke-linejoin="round" stroke-miterlimit="79.84" stroke-width="2" fill-rule="evenodd"/>
    <path id="path138" d="M62.317-88.235l-9.769-3.556" transform="translate(-4.515 103.478)" fill="none" stroke="#fff" stroke-linecap="round" stroke-linejoin="round" stroke-miterlimit="79.84" stroke-width="2" fill-rule="evenodd"/>
    <g id="Group_4" transform="translate(30.052 6.413)">
      <path id="path139" d="M82.936-83.615l-2.771-1.6a2.316,2.316,0,0,1-.878-3.277l4-6.926A2.337,2.337,0,0,1,85.871-96.7l4.263.614" transform="translate(-32.817 96.737)" fill="none" stroke="#fff" stroke-linecap="round" stroke-linejoin="round" stroke-miterlimit="79.84" stroke-width="2" fill-rule="evenodd"/>
      <path id="path140" d="M83.145-95.424l-2.078-1.2" transform="translate(-32.676 96.744)" fill="none" stroke="#fff" stroke-linecap="round" stroke-linejoin="round" stroke-miterlimit="79.84" stroke-width="2" fill-rule="evenodd"/>
      <path id="path141" d="M79.4-88.929l-2.078-1.2" transform="translate(-32.925 97.175)" fill="none" stroke="#fff" stroke-linecap="round" stroke-linejoin="round" stroke-miterlimit="79.84" stroke-width="2" fill-rule="evenodd"/>
      <path id="path142" d="M81.27-92.177l-2.078-1.2" transform="translate(-32.8 96.96)" fill="none" stroke="#fff" stroke-linecap="round" stroke-linejoin="round" stroke-miterlimit="79.84" stroke-width="2" fill-rule="evenodd"/>
      <path id="path143" d="M85.438-93.35l-3.2,5.54" transform="translate(-32.598 96.961)" fill="none" stroke="#fff" stroke-linecap="round" stroke-linejoin="round" stroke-miterlimit="79.84" stroke-width="2" fill-rule="evenodd"/>
      <path id="path144" d="M81.251-85.931,62.565-55.164" transform="translate(-33.902 97.453)" fill="none" stroke="#fff" stroke-linecap="round" stroke-linejoin="round" stroke-miterlimit="79.84" stroke-width="2" fill-rule="evenodd"/>
      <path id="path145" d="M69.945-66.107c-4.861-1.886-12-1.6-15.694,4.79a20.242,20.242,0,0,0-2.578,8.206c-.538,2.886-1.923,4.8-6.219,7.031-12.525,5.7-13.781,20.67.762,29.067" transform="translate(-35.684 98.7)" fill="none" stroke="#fff" stroke-linecap="round" stroke-linejoin="round" stroke-miterlimit="79.84" stroke-width="2" fill-rule="evenodd"/>
      <path id="path146" d="M61.062-46.294A4,4,0,0,1,59.6-51.757a4,4,0,0,1,5.463-1.464,4,4,0,0,1,1.463,5.463A4,4,0,0,1,61.062-46.294Z" transform="translate(-34.135 99.586)" fill="none" stroke="#fff" stroke-miterlimit="79.84" stroke-width="2" fill-rule="evenodd"/>
      <path id="path147" d="M59.661-43.325a7.2,7.2,0,0,1-2.634-9.832,7.2,7.2,0,0,1,9.832-2.635,7.2,7.2,0,0,1,2.634,9.832A7.2,7.2,0,0,1,59.661-43.325Z" transform="translate(-34.334 99.387)" fill="none" stroke="#fff" stroke-miterlimit="79.84" stroke-width="2" fill-rule="evenodd"/>
      <path id="path148" d="M46.653-32.446h0a1.6,1.6,0,0,0,.584,2.184l6.929,4a1.6,1.6,0,0,0,2.184-.585h0a1.6,1.6,0,0,0-.585-2.184l-6.928-4A1.6,1.6,0,0,0,46.653-32.446Z" transform="translate(-34.971 100.946)" fill="none" stroke="#fff" stroke-linecap="round" stroke-linejoin="round" stroke-miterlimit="79.84" stroke-width="2" fill-rule="evenodd"/>
      <path id="path149" d="M82.688-83.656l2.77,1.6a2.316,2.316,0,0,0,3.277-.878l4-6.926a2.338,2.338,0,0,0-.186-2.878l-2.663-3.384" transform="translate(-32.569 96.778)" fill="none" stroke="#fff" stroke-linecap="round" stroke-linejoin="round" stroke-miterlimit="79.84" stroke-width="2" fill-rule="evenodd"/>
      <path id="path150" d="M92.109-90.249l2.078,1.2" transform="translate(-31.944 97.167)" fill="none" stroke="#fff" stroke-linecap="round" stroke-linejoin="round" stroke-miterlimit="79.84" stroke-width="2" fill-rule="evenodd"/>
      <path id="path151" d="M88.359-83.754l2.078,1.2" transform="translate(-32.193 97.597)" fill="none" stroke="#fff" stroke-linecap="round" stroke-linejoin="round" stroke-miterlimit="79.84" stroke-width="2" fill-rule="evenodd"/>
      <path id="path152" d="M90.234-87l2.078,1.2" transform="translate(-32.068 97.382)" fill="none" stroke="#fff" stroke-linecap="round" stroke-linejoin="round" stroke-miterlimit="79.84" stroke-width="2" fill-rule="evenodd"/>
      <path id="path153" d="M89.335-91.1l-3.2,5.54" transform="translate(-32.34 97.111)" fill="none" stroke="#fff" stroke-linecap="round" stroke-linejoin="round" stroke-miterlimit="79.84" stroke-width="2" fill-rule="evenodd"/>
      <path id="path154" d="M86.362-82.931,69.06-51.365" transform="translate(-33.472 97.652)" fill="none" stroke="#fff" stroke-linecap="round" stroke-linejoin="round" stroke-miterlimit="79.84" stroke-width="2" fill-rule="evenodd"/>
      <path id="path155" d="M76.216-62.42c4.064,3.266,7.388,9.6,3.7,15.986A20.226,20.226,0,0,1,74.1-40.1c-2.23,1.91-3.2,4.065-2.979,8.9C72.445-17.5,60.106-8.928,45.562-17.325" transform="translate(-35.03 99.012)" fill="none" stroke="#fff" stroke-linecap="round" stroke-linejoin="round" stroke-miterlimit="79.84" stroke-width="2" fill-rule="evenodd"/>
      <path id="path156" d="M54.536-28.938l6.8-11.774" transform="translate(-34.435 100.451)" fill="none" stroke="#fff" stroke-linecap="round" stroke-linejoin="round" stroke-miterlimit="79.84" stroke-width="2" fill-rule="evenodd"/>
      <path id="path157" d="M49.339-31.938l6.8-11.774" transform="translate(-34.779 100.252)" fill="none" stroke="#fff" stroke-linecap="round" stroke-linejoin="round" stroke-miterlimit="79.84" stroke-width="2" fill-rule="evenodd"/>
    </g>
  </g>
</svg>
