<svg xmlns="http://www.w3.org/2000/svg" width="41.9" height="49.6" viewBox="0 0 41.9 49.6">
  <g id="price-1" transform="translate(1002.303 -2097.301)">
    <g id="Group_406" data-name="Group 406" transform="translate(-1239.403 1594.801)">
      <g id="Group_405" data-name="Group 405">
        <path id="Path_76" data-name="Path 76" d="M269.8,520.9a9.2,9.2,0,1,1,6.5-2.7A9.249,9.249,0,0,1,269.8,520.9Zm0-15.8a6.6,6.6,0,0,0-4.7,11.3,6.655,6.655,0,0,0,4.7,1.9,6.834,6.834,0,0,0,4.7-1.9,6.6,6.6,0,0,0-4.7-11.3Z" fill="#231f20"/>
      </g>
    </g>
    <g id="Group_408" data-name="Group 408" transform="translate(-1239.403 1594.801)">
      <g id="Group_407" data-name="Group 407">
        <path id="Path_77" data-name="Path 77" d="M275,518.9a13.192,13.192,0,0,1-8.5-3.9,13.7,13.7,0,0,1-3.9-8.5l2.5-.2a11.249,11.249,0,0,0,3.1,6.9,11.006,11.006,0,0,0,6.9,3.1Z" fill="#231f20"/>
      </g>
    </g>
    <g id="Group_410" data-name="Group 410" transform="translate(-1239.403 1594.801)">
      <g id="Group_409" data-name="Group 409">
        <path id="Path_78" data-name="Path 78" d="M264.6,524.9a8.6,8.6,0,0,1-8-8l2.5-.2a5.919,5.919,0,0,0,1.8,3.9,6.181,6.181,0,0,0,3.9,1.8Z" fill="#231f20"/>
      </g>
    </g>
    <g id="Group_412" data-name="Group 412" transform="translate(-1239.403 1594.801)">
      <g id="Group_411" data-name="Group 411">
        <path id="Path_79" data-name="Path 79" d="M249.4,537.2a5.075,5.075,0,0,1-3.6-1.5,5.234,5.234,0,0,1-.2-7.1L261,511.5l1.9,1.7-15.4,17.1a2.55,2.55,0,0,0,3.6,3.6l16.8-15.1,1.7,1.9-16.8,15.1A4.684,4.684,0,0,1,249.4,537.2Z" fill="#231f20"/>
      </g>
    </g>
    <g id="Group_414" data-name="Group 414" transform="translate(-1239.403 1594.801)">
      <g id="Group_413" data-name="Group 413">
        <path id="Path_80" data-name="Path 80" d="M245.3,540a3.864,3.864,0,0,1-2.7-1.1,3.8,3.8,0,0,1,0-5.4l1.7-1.7,1.8,1.8-1.7,1.7a1.273,1.273,0,1,0,1.8,1.8l1.7-1.7,1.8,1.8-1.7,1.7A3.864,3.864,0,0,1,245.3,540Z" fill="#231f20"/>
      </g>
    </g>
    <g id="Group_416" data-name="Group 416" transform="translate(-1239.403 1594.801)">
      <g id="Group_415" data-name="Group 415">
        <path id="Path_81" data-name="Path 81" d="M261.3,552.1l-1.8-1.8,5.3-5.3a4.031,4.031,0,0,0-5.7-5.7L248.4,550a6.655,6.655,0,0,1-4.7,1.9A6.834,6.834,0,0,1,239,550h0a6.655,6.655,0,0,1-1.9-4.7,6.834,6.834,0,0,1,1.9-4.7l3.5-3.5,1.8,1.8-3.5,3.5a4.1,4.1,0,0,0,0,5.8h0a4.1,4.1,0,0,0,5.8,0l10.7-10.7a6.576,6.576,0,0,1,9.3,9.3Z" fill="#231f20"/>
      </g>
    </g>
  </g>
</svg>
