<svg xmlns="http://www.w3.org/2000/svg" width="60.013" height="60" viewBox="0 0 60.013 60">
  <g id="price-9" transform="translate(0.013 0)">
    <path id="path107" d="M117-1926v60h60v-60Z" transform="translate(-116.999 1926)" fill="none" fill-rule="evenodd"/>
    <path id="path108" d="M137.931-1877.618c12.591,0,21.741-17.709,20.022-42.642-.383-3.662-2.589-3.819-5.437-3.233-4.815.959-9.492.8-14.529.8s-9.827.158-14.642-.8c-2.848-.586-5.054-.429-5.436,3.233C116.189-1895.327,125.338-1877.618,137.931-1877.618Z" transform="translate(-116.697 1926.968)" fill="none" stroke="#ff0026" stroke-linecap="round" stroke-linejoin="round" stroke-miterlimit="79.84" stroke-width="2" fill-rule="evenodd"/>
    <path id="path109" d="M135.364-1911.812a6.921,6.921,0,0,1,8.813-1.1" transform="translate(-109.135 1931.147)" fill="none" stroke="#ff0026" stroke-linecap="round" stroke-linejoin="round" stroke-miterlimit="79.84" stroke-width="2" fill-rule="evenodd"/>
    <path id="path110" d="M135.253-1893.627c5.413,0,10.179-3.476,11.332-11.63-.03-.916-.639-1.559-1.486-1.073a16.679,16.679,0,0,1-9.846,2.36,16.685,16.685,0,0,1-9.847-2.36c-.845-.486-1.455.157-1.486,1.073C125.074-1897.1,129.841-1893.627,135.253-1893.627Z" transform="translate(-114.041 1934.357)" fill="none" stroke="#ff0026" stroke-linecap="round" stroke-linejoin="round" stroke-miterlimit="79.84" stroke-width="2" fill-rule="evenodd"/>
    <path id="path111" d="M130.974-1911.812a6.923,6.923,0,0,0-8.814-1.1" transform="translate(-114.777 1931.147)" fill="none" stroke="#ff0026" stroke-linecap="round" stroke-linejoin="round" stroke-miterlimit="79.84" stroke-width="2" fill-rule="evenodd"/>
    <g id="Group_8" transform="translate(24.735 18.717)">
      <path id="path112" d="M152.451-1912.64a61.316,61.316,0,0,0,12.242,2.4c2.48.143,4.263.758,3.762,3.891-4.144,21.142-15.638,33.859-26.018,31.069-3.532-.944-6.278-3.5-8.089-7.281" transform="translate(-134.347 1912.969)" fill="none" stroke="#ff0026" stroke-linecap="round" stroke-linejoin="round" stroke-miterlimit="79.84" stroke-width="2" fill-rule="evenodd"/>
      <path id="path113" d="M147.765-1903.87a5.369,5.369,0,0,0,6.988,2.975" transform="translate(-128.571 1916.744)" fill="none" stroke="#ff0026" stroke-linecap="round" stroke-linejoin="round" stroke-miterlimit="79.84" stroke-width="2" fill-rule="evenodd"/>
      <path id="path114" d="M147.371-1912.541c-.411-.114-.817-.229-1.222-.329" transform="translate(-129.267 1912.87)" fill="none" stroke="#ff0026" stroke-linecap="round" stroke-linejoin="round" stroke-miterlimit="79.84" stroke-width="2" fill-rule="evenodd"/>
      <path id="path115" d="M138.061-1892.063a3.685,3.685,0,0,0,1.691-.129,7.786,7.786,0,0,1,3.868-.157,7.824,7.824,0,0,1,3.269,2.074,3.038,3.038,0,0,0,5.051-3.347c-.685-1.23-3.055-1.774-7.208-2.89q-1.137-.3-2.1-.558" transform="translate(-132.748 1919.671)" fill="none" stroke="#ff0026" stroke-linecap="round" stroke-linejoin="round" stroke-miterlimit="79.84" stroke-width="2" fill-rule="evenodd"/>
    </g>
  </g>
</svg>
