<svg xmlns="http://www.w3.org/2000/svg" width="60" height="60.339" viewBox="0 0 60 60.339">
  <g id="price-11" transform="translate(0 0.339)">
    <path id="path153" d="M216-1926v60h60v-60Z" transform="translate(-215.999 1926)" fill="none" fill-rule="evenodd"/>
    <path id="path154" d="M218.25-1925.25c4.413,6.165,13.926,10.729,26.781,10.729s22.367-4.563,26.781-10.729" transform="translate(-215.03 1926.323)" fill="none" stroke="#ff0026" stroke-linecap="round" stroke-linejoin="round" stroke-miterlimit="79.84" stroke-width="2" fill-rule="evenodd"/>
    <path id="path155" d="M229.406-1919.25c-.187,10.342-1.542,20.226-9.656,28.966" transform="translate(-214.384 1928.885)" fill="none" stroke="#ff0026" stroke-linecap="round" stroke-linejoin="round" stroke-miterlimit="79.84" stroke-width="2" fill-rule="evenodd"/>
    <path id="path156" d="M216.75-1899h4.291v5.364H216.75" transform="translate(-215.676 1937.576)" fill="none" stroke="#ff0026" stroke-linecap="round" stroke-linejoin="round" stroke-miterlimit="79.84" stroke-width="2" fill-rule="evenodd"/>
    <path id="path157" d="M221.041-1895.25c3.382,3.3,5.364,8.583,5.364,13.947-2.714,1.23-5.364,1.073-9.656,1.073" transform="translate(-215.676 1939.172)" fill="none" stroke="#ff0026" stroke-linecap="round" stroke-linejoin="round" stroke-miterlimit="79.84" stroke-width="2" fill-rule="evenodd"/>
    <path id="path158" d="M217.5-1891.575c3.546-6.38,5.364-13.947,5.364-24.675" transform="translate(-215.353 1930.171)" fill="none" stroke="#ff0026" stroke-linecap="round" stroke-linejoin="round" stroke-miterlimit="79.84" stroke-width="2" fill-rule="evenodd"/>
    <path id="path159" d="M217.5-1895.25a31.412,31.412,0,0,1,3.219,11.8" transform="translate(-215.353 1939.172)" fill="none" stroke="#ff0026" stroke-linecap="round" stroke-linejoin="round" stroke-miterlimit="79.84" stroke-width="2" fill-rule="evenodd"/>
    <path id="path160" d="M225.75-1925.25c2.645,2.961,8.347,5.15,16.052,5.15s13.407-2.189,16.052-5.15" transform="translate(-211.802 1926.323)" fill="none" stroke="#ff0026" stroke-linecap="round" stroke-linejoin="round" stroke-miterlimit="79.84" stroke-width="2" fill-rule="evenodd"/>
    <path id="path161" d="M247.5-1919.25c.187,10.342,1.542,20.226,9.656,28.966" transform="translate(-202.52 1928.885)" fill="none" stroke="#ff0026" stroke-linecap="round" stroke-linejoin="round" stroke-miterlimit="79.84" stroke-width="2" fill-rule="evenodd"/>
    <path id="path162" d="M258.541-1899H254.25v5.364h4.291" transform="translate(-199.614 1937.576)" fill="none" stroke="#ff0026" stroke-linecap="round" stroke-linejoin="round" stroke-miterlimit="79.84" stroke-width="2" fill-rule="evenodd"/>
    <path id="path163" d="M255.864-1895.25c-3.382,3.3-5.364,8.583-5.364,13.947,2.714,1.23,5.364,1.073,9.656,1.073" transform="translate(-201.228 1939.172)" fill="none" stroke="#ff0026" stroke-linecap="round" stroke-linejoin="round" stroke-miterlimit="79.84" stroke-width="2" fill-rule="evenodd"/>
    <path id="path164" d="M258.114-1891.575c-3.546-6.38-5.364-13.947-5.364-24.675" transform="translate(-200.26 1930.171)" fill="none" stroke="#ff0026" stroke-linecap="round" stroke-linejoin="round" stroke-miterlimit="79.84" stroke-width="2" fill-rule="evenodd"/>
    <path id="path165" d="M257.469-1895.25a31.412,31.412,0,0,0-3.218,11.8" transform="translate(-199.614 1939.172)" fill="none" stroke="#ff0026" stroke-linecap="round" stroke-linejoin="round" stroke-miterlimit="79.84" stroke-width="2" fill-rule="evenodd"/>
    <path id="path166" d="M239.3-1901.732v-9.069c-.064-2.289,1.243-4.906,3.856-3.6,3.048,1.745,4.1,6.151,0,10.042-2.518,2.289-4.823,3.562-7.3,5.55-4.585,3.748-5.924,10.428-1.481,14.347,4.379,3.476,12.013,2.246,12.449-4.391a5.277,5.277,0,0,0-7.541-4.978c-1.316.787-2.417,1.945-2.053,3.648.408,1.845,3.3,2.9,4.56.086" transform="translate(-209.302 1930.804)" fill="none" stroke="#ff0026" stroke-linecap="round" stroke-linejoin="round" stroke-miterlimit="79.84" stroke-width="2" fill-rule="evenodd"/>
    <path id="path167" d="M238.408-1892.25v5.693c.2,2.289-1.038,3.905-2.691,4.005a3.1,3.1,0,0,1-2.675-1.116,1.943,1.943,0,0,1-.051-2.518c.794-.93,2.538-.887,2.807.5" transform="translate(-208.909 1940.463)" fill="none" stroke="#ff0026" stroke-linecap="round" stroke-linejoin="round" stroke-miterlimit="79.84" stroke-width="2" fill-rule="evenodd"/>
  </g>
</svg>
