<svg xmlns="http://www.w3.org/2000/svg" width="60" height="60.314" viewBox="0 0 60 60.314">
  <g id="Group_6" transform="translate(-67.499 1975.814)">
    <path id="path86" d="M67.5-1975.5v60h60v-60Z" transform="translate(0 0)" fill="none" fill-rule="evenodd"/>
    <path id="path87" d="M87.955-1948.93h35.339v16.138H69.75v-16.138h6.425l37.48-25.82" transform="translate(0.978 0.326)" fill="none" stroke="#ff0026" stroke-linecap="round" stroke-linejoin="round" stroke-miterlimit="79.84" stroke-width="2" fill-rule="evenodd"/>
    <path id="path88" d="M104.705-1951.211,98.25-1969.5" transform="translate(13.156 2.607)" fill="none" stroke="#ff0026" stroke-linecap="round" stroke-linejoin="round" stroke-miterlimit="79.84" stroke-width="2" fill-rule="evenodd"/>
    <path id="path89" d="M72-1951.5h2.14v3.227h42.808v-3.227h2.14" transform="translate(1.956 10.286)" fill="none" stroke="#ff0026" stroke-linecap="round" stroke-linejoin="round" stroke-miterlimit="79.84" stroke-width="2" fill-rule="evenodd"/>
    <path id="path90" d="M76.5-1951.5v2.152" transform="translate(3.857 10.289)" fill="none" stroke="#ff0026" stroke-linecap="round" stroke-linejoin="round" stroke-miterlimit="79.84" stroke-width="2" fill-rule="evenodd"/>
    <path id="path91" d="M79.5-1951.5v2.152" transform="translate(5.143 10.289)" fill="none" stroke="#ff0026" stroke-linecap="round" stroke-linejoin="round" stroke-miterlimit="79.84" stroke-width="2" fill-rule="evenodd"/>
    <path id="path92" d="M82.5-1951.5v2.152" transform="translate(6.428 10.289)" fill="none" stroke="#ff0026" stroke-linecap="round" stroke-linejoin="round" stroke-miterlimit="79.84" stroke-width="2" fill-rule="evenodd"/>
    <path id="path93" d="M85.5-1951.5v2.152" transform="translate(7.714 10.289)" fill="none" stroke="#ff0026" stroke-linecap="round" stroke-linejoin="round" stroke-miterlimit="79.84" stroke-width="2" fill-rule="evenodd"/>
    <path id="path94" d="M88.5-1951.5v2.152" transform="translate(9 10.289)" fill="none" stroke="#ff0026" stroke-linecap="round" stroke-linejoin="round" stroke-miterlimit="79.84" stroke-width="2" fill-rule="evenodd"/>
    <path id="path95" d="M91.5-1951.5v2.152" transform="translate(10.285 10.289)" fill="none" stroke="#ff0026" stroke-linecap="round" stroke-linejoin="round" stroke-miterlimit="79.84" stroke-width="2" fill-rule="evenodd"/>
    <path id="path96" d="M94.5-1951.5v2.152" transform="translate(11.571 10.289)" fill="none" stroke="#ff0026" stroke-linecap="round" stroke-linejoin="round" stroke-miterlimit="79.84" stroke-width="2" fill-rule="evenodd"/>
    <path id="path97" d="M97.5-1951.5v2.152" transform="translate(12.857 10.289)" fill="none" stroke="#ff0026" stroke-linecap="round" stroke-linejoin="round" stroke-miterlimit="79.84" stroke-width="2" fill-rule="evenodd"/>
    <path id="path98" d="M100.5-1951.5v2.152" transform="translate(14.142 10.289)" fill="none" stroke="#ff0026" stroke-linecap="round" stroke-linejoin="round" stroke-miterlimit="79.84" stroke-width="2" fill-rule="evenodd"/>
    <path id="path99" d="M106.3-1945.5l-1.076,16.138h-2.152L102-1945.5" transform="translate(14.741 12.801)" fill="none" stroke="#ff0026" stroke-linecap="round" stroke-linejoin="round" stroke-miterlimit="79.84" stroke-width="2" fill-rule="evenodd"/>
    <path id="path100" d="M84-1935.75h2.152" transform="translate(7.068 17.037)" fill="none" stroke="#ff0026" stroke-linecap="round" stroke-linejoin="round" stroke-miterlimit="79.84" stroke-width="2" fill-rule="evenodd"/>
    <path id="path101" d="M87.75-1935.75H89.9" transform="translate(8.674 17.037)" fill="none" stroke="#ff0026" stroke-linecap="round" stroke-linejoin="round" stroke-miterlimit="79.84" stroke-width="2" fill-rule="evenodd"/>
    <path id="path102" d="M91.5-1935.75h2.152" transform="translate(10.28 17.037)" fill="none" stroke="#ff0026" stroke-linecap="round" stroke-linejoin="round" stroke-miterlimit="79.84" stroke-width="2" fill-rule="evenodd"/>
    <path id="path103" d="M76.3-1945.5l-1.076,16.138H73.076L72-1945.5" transform="translate(1.956 12.801)" fill="none" stroke="#ff0026" stroke-linecap="round" stroke-linejoin="round" stroke-miterlimit="79.84" stroke-width="2" fill-rule="evenodd"/>
    <path id="path104" d="M88.5-1932.818v-9.683" transform="translate(9 14.104)" fill="none" stroke="#ff0026" stroke-linecap="round" stroke-linejoin="round" stroke-miterlimit="79.84" stroke-width="2" fill-rule="evenodd"/>
    <path id="path105" d="M91.5-1932.818v-9.683" transform="translate(10.285 14.104)" fill="none" stroke="#ff0026" stroke-linecap="round" stroke-linejoin="round" stroke-miterlimit="79.84" stroke-width="2" fill-rule="evenodd"/>
    <path id="path106" d="M85.5-1932.818v-9.683" transform="translate(7.714 14.104)" fill="none" stroke="#ff0026" stroke-linecap="round" stroke-linejoin="round" stroke-miterlimit="79.84" stroke-width="2" fill-rule="evenodd"/>
  </g>
</svg>
