<svg xmlns="http://www.w3.org/2000/svg" width="27.801" height="12.214" viewBox="0 0 27.801 12.214">
  <g id="arrow" transform="translate(3)">
    <path id="Path_7" data-name="Path 7" d="M4.755,10.38a.872.872,0,0,0,0,1.235L9.372,16.23,4.754,20.847a.873.873,0,0,0,1.235,1.235l5.233-5.233a.872.872,0,0,0,0-1.235L5.989,10.38a.872.872,0,0,0-1.235,0Z" transform="translate(13.322 -10.123)" fill="#ff0027" fill-rule="evenodd"/>
    <path id="Path_8" data-name="Path 8" d="M25.687,17.747a.872.872,0,0,0-.872-.872H6.5a.872.872,0,1,0,0,1.744H24.814A.872.872,0,0,0,25.687,17.747Z" transform="translate(-1.759 -11.64)" fill="#ff0027" fill-rule="evenodd"/>
    <path id="Path_9" data-name="Path 9" d="M25.687,17.747a.872.872,0,0,0-.872-.872H6.5a.872.872,0,1,0,0,1.744H24.814A.872.872,0,0,0,25.687,17.747Z" transform="translate(-8.625 -11.64)" fill="#ff0027" fill-rule="evenodd"/>
  </g>
</svg>
