<svg xmlns="http://www.w3.org/2000/svg" width="78.624" height="36" viewBox="0 0 78.624 36">
  <g id="success" transform="translate(-2427.25 575.667)">
    <g id="_1904660_email_envelope_letter_mail_message_icon" data-name="1904660_email_envelope_letter_mail_message_icon" transform="translate(2455.874 -594.667)">
      <path id="Path_504" data-name="Path 504" d="M52.064,31a1.147,1.147,0,0,0-1.639-.246L31.542,45.3a.381.381,0,0,1-.468,0l-18.513-14.6a1.147,1.147,0,0,0-1.641.227,1.233,1.233,0,0,0,.22,1.693L25.7,44.1,11.3,55.286a1.241,1.241,0,0,0-.24,1.7,1.155,1.155,0,0,0,1.649.248L27.628,45.618l2.021,1.61a2.665,2.665,0,0,0,3.29.024l2.123-1.634L50.156,57.235a1.148,1.148,0,0,0,1.639-.246,1.233,1.233,0,0,0-.238-1.691L37.017,44.092,51.826,32.681A1.233,1.233,0,0,0,52.064,31Z" transform="translate(-6.487 -6.952)" fill="#ef1a2a"/>
      <path id="Path_505" data-name="Path 505" d="M44.141,19H5.859A5.931,5.931,0,0,0,0,25V49a5.931,5.931,0,0,0,5.859,6H44.141A5.931,5.931,0,0,0,50,49V25a5.931,5.931,0,0,0-5.859-6Zm3.516,30a3.559,3.559,0,0,1-3.516,3.6H5.859A3.559,3.559,0,0,1,2.344,49V25a3.559,3.559,0,0,1,3.516-3.6H44.141A3.559,3.559,0,0,1,47.656,25Z" transform="translate(0 0)" fill="#ef1a2a"/>
    </g>
    <path id="Контур_506" data-name="Контур 506" d="M20,1.25H0A1.25,1.25,0,0,1-1.25,0,1.25,1.25,0,0,1,0-1.25H20A1.25,1.25,0,0,1,21.25,0,1.25,1.25,0,0,1,20,1.25Z" transform="translate(2428.5 -565.5)" fill="#ef1a2a"/>
    <path id="Контур_508" data-name="Контур 508" d="M6,1.25H0A1.25,1.25,0,0,1-1.25,0,1.25,1.25,0,0,1,0-1.25H6A1.25,1.25,0,0,1,7.25,0,1.25,1.25,0,0,1,6,1.25Z" transform="translate(2442 -550)" fill="#ef1a2a"/>
  </g>
</svg>
