<svg xmlns="http://www.w3.org/2000/svg" width="30" height="30" viewBox="0 0 30 30">
  <g id="_7156624_whatsapp_social_media_chat_message_icon" data-name="7156624_whatsapp_social_media_chat_message_icon" transform="translate(-0.247 -0.23)">
    <path id="Path_486" data-name="Path 486" d="M15.242,30.23A14.776,14.776,0,0,1,7.42,28.022l-3.3.869A2.025,2.025,0,0,1,1.649,26.4l.869-3.216A14.652,14.652,0,0,1,.745,19.054a15.207,15.207,0,0,1-.461-4.919A15,15,0,1,1,15.242,30.23ZM7.42,25.841a2.034,2.034,0,0,1,1.069.3,12.551,12.551,0,0,0,3.8,1.573,13.038,13.038,0,0,0,5.215.13h0A12.785,12.785,0,1,0,4.4,22.113a2.06,2.06,0,0,1,.243,1.625l-.869,3.033,3.207-.86a1.956,1.956,0,0,1,.461-.07Z" transform="translate(0 0)" fill="#ef1a2a"/>
    <path id="Path_487" data-name="Path 487" d="M12.572,10.83h0a1.44,1.44,0,0,1,1.295.831l.792,1.681a1.816,1.816,0,0,1-.145,1.787h0a1.787,1.787,0,0,0-.058,1.932,7.6,7.6,0,0,0,3.4,3.053,1.758,1.758,0,0,0,1.932-.406l.087-.087a1.816,1.816,0,0,1,2.058-.357l1.072.512a1.807,1.807,0,0,1,.831,2.464c-.522.966-1.71,1.836-4.406,1.285-4.831-.966-8.1-6.357-8.521-7.092l-.087-.174c-.232-.57-1.343-3.594.966-5.227a1.285,1.285,0,0,1,.783-.2Z" transform="translate(-2.377 -1.706)" fill="#ef1a2a"/>
  </g>
</svg>
